<?xml version="1.0" encoding="utf-8" standalone="no"?>
<!DOCTYPE svg PUBLIC "-//W3C//DTD SVG 1.1//EN"
  "http://www.w3.org/Graphics/SVG/1.1/DTD/svg11.dtd">
<svg xmlns:xlink="http://www.w3.org/1999/xlink" width="1296pt" height="360pt" viewBox="0 0 1296 360" xmlns="http://www.w3.org/2000/svg" version="1.1">
 <metadata>
  <rdf:RDF xmlns:dc="http://purl.org/dc/elements/1.1/" xmlns:cc="http://creativecommons.org/ns#" xmlns:rdf="http://www.w3.org/1999/02/22-rdf-syntax-ns#">
   <cc:Work>
    <dc:type rdf:resource="http://purl.org/dc/dcmitype/StillImage"/>
    <dc:date>2026-05-15T17:33:42.226386</dc:date>
    <dc:format>image/svg+xml</dc:format>
    <dc:creator>
     <cc:Agent>
      <dc:title>Matplotlib v3.10.9, https://matplotlib.org/</dc:title>
     </cc:Agent>
    </dc:creator>
   </cc:Work>
  </rdf:RDF>
 </metadata>
 <defs>
  <style type="text/css">*{stroke-linejoin: round; stroke-linecap: butt}</style>
 </defs>
 <g id="figure_1">
  <g id="patch_1">
   <path d="M 0 360 
L 1296 360 
L 1296 0 
L 0 0 
z
" style="fill: #ffffff"/>
  </g>
  <g id="axes_1">
   <g id="patch_2">
    <path d="M 47.855 318.04 
L 424.14 318.04 
L 424.14 48.84 
L 47.855 48.84 
z
" style="fill: #ffffff"/>
   </g>
   <g id="matplotlib.axis_1">
    <g id="xtick_1">
     <g id="line2d_1">
      <path d="M 64.958864 318.04 
L 64.958864 48.84 
" clip-path="url(#pe138698817)" style="fill: none; stroke: #b0b0b0; stroke-opacity: 0.3; stroke-width: 0.8; stroke-linecap: square"/>
     </g>
     <g id="line2d_2">
      <defs>
       <path id="mddac636cde" d="M 0 0 
L 0 3.5 
" style="stroke: #000000; stroke-width: 0.8"/>
      </defs>
      <g>
       <use xlink:href="#mddac636cde" x="64.958864" y="318.04" style="stroke: #000000; stroke-width: 0.8"/>
      </g>
     </g>
     <g id="text_1">
      <!-- 0 -->
      <g transform="translate(61.777614 332.638438) scale(0.1 -0.1)">
       <defs>
        <path id="DejaVuSans-30" d="M 2034 4250 
Q 1547 4250 1301 3770 
Q 1056 3291 1056 2328 
Q 1056 1369 1301 889 
Q 1547 409 2034 409 
Q 2525 409 2770 889 
Q 3016 1369 3016 2328 
Q 3016 3291 2770 3770 
Q 2525 4250 2034 4250 
z
M 2034 4750 
Q 2819 4750 3233 4129 
Q 3647 3509 3647 2328 
Q 3647 1150 3233 529 
Q 2819 -91 2034 -91 
Q 1250 -91 836 529 
Q 422 1150 422 2328 
Q 422 3509 836 4129 
Q 1250 4750 2034 4750 
z
" transform="scale(0.015625)"/>
       </defs>
       <use xlink:href="#DejaVuSans-30"/>
      </g>
     </g>
    </g>
    <g id="xtick_2">
     <g id="line2d_3">
      <path d="M 139.703712 318.04 
L 139.703712 48.84 
" clip-path="url(#pe138698817)" style="fill: none; stroke: #b0b0b0; stroke-opacity: 0.3; stroke-width: 0.8; stroke-linecap: square"/>
     </g>
     <g id="line2d_4">
      <g>
       <use xlink:href="#mddac636cde" x="139.703712" y="318.04" style="stroke: #000000; stroke-width: 0.8"/>
      </g>
     </g>
     <g id="text_2">
      <!-- 1000 -->
      <g transform="translate(126.978712 332.638438) scale(0.1 -0.1)">
       <defs>
        <path id="DejaVuSans-31" d="M 794 531 
L 1825 531 
L 1825 4091 
L 703 3866 
L 703 4441 
L 1819 4666 
L 2450 4666 
L 2450 531 
L 3481 531 
L 3481 0 
L 794 0 
L 794 531 
z
" transform="scale(0.015625)"/>
       </defs>
       <use xlink:href="#DejaVuSans-31"/>
       <use xlink:href="#DejaVuSans-30" transform="translate(63.623047 0)"/>
       <use xlink:href="#DejaVuSans-30" transform="translate(127.246094 0)"/>
       <use xlink:href="#DejaVuSans-30" transform="translate(190.869141 0)"/>
      </g>
     </g>
    </g>
    <g id="xtick_3">
     <g id="line2d_5">
      <path d="M 214.44856 318.04 
L 214.44856 48.84 
" clip-path="url(#pe138698817)" style="fill: none; stroke: #b0b0b0; stroke-opacity: 0.3; stroke-width: 0.8; stroke-linecap: square"/>
     </g>
     <g id="line2d_6">
      <g>
       <use xlink:href="#mddac636cde" x="214.44856" y="318.04" style="stroke: #000000; stroke-width: 0.8"/>
      </g>
     </g>
     <g id="text_3">
      <!-- 2000 -->
      <g transform="translate(201.72356 332.638438) scale(0.1 -0.1)">
       <defs>
        <path id="DejaVuSans-32" d="M 1228 531 
L 3431 531 
L 3431 0 
L 469 0 
L 469 531 
Q 828 903 1448 1529 
Q 2069 2156 2228 2338 
Q 2531 2678 2651 2914 
Q 2772 3150 2772 3378 
Q 2772 3750 2511 3984 
Q 2250 4219 1831 4219 
Q 1534 4219 1204 4116 
Q 875 4013 500 3803 
L 500 4441 
Q 881 4594 1212 4672 
Q 1544 4750 1819 4750 
Q 2544 4750 2975 4387 
Q 3406 4025 3406 3419 
Q 3406 3131 3298 2873 
Q 3191 2616 2906 2266 
Q 2828 2175 2409 1742 
Q 1991 1309 1228 531 
z
" transform="scale(0.015625)"/>
       </defs>
       <use xlink:href="#DejaVuSans-32"/>
       <use xlink:href="#DejaVuSans-30" transform="translate(63.623047 0)"/>
       <use xlink:href="#DejaVuSans-30" transform="translate(127.246094 0)"/>
       <use xlink:href="#DejaVuSans-30" transform="translate(190.869141 0)"/>
      </g>
     </g>
    </g>
    <g id="xtick_4">
     <g id="line2d_7">
      <path d="M 289.193409 318.04 
L 289.193409 48.84 
" clip-path="url(#pe138698817)" style="fill: none; stroke: #b0b0b0; stroke-opacity: 0.3; stroke-width: 0.8; stroke-linecap: square"/>
     </g>
     <g id="line2d_8">
      <g>
       <use xlink:href="#mddac636cde" x="289.193409" y="318.04" style="stroke: #000000; stroke-width: 0.8"/>
      </g>
     </g>
     <g id="text_4">
      <!-- 3000 -->
      <g transform="translate(276.468409 332.638438) scale(0.1 -0.1)">
       <defs>
        <path id="DejaVuSans-33" d="M 2597 2516 
Q 3050 2419 3304 2112 
Q 3559 1806 3559 1356 
Q 3559 666 3084 287 
Q 2609 -91 1734 -91 
Q 1441 -91 1130 -33 
Q 819 25 488 141 
L 488 750 
Q 750 597 1062 519 
Q 1375 441 1716 441 
Q 2309 441 2620 675 
Q 2931 909 2931 1356 
Q 2931 1769 2642 2001 
Q 2353 2234 1838 2234 
L 1294 2234 
L 1294 2753 
L 1863 2753 
Q 2328 2753 2575 2939 
Q 2822 3125 2822 3475 
Q 2822 3834 2567 4026 
Q 2313 4219 1838 4219 
Q 1578 4219 1281 4162 
Q 984 4106 628 3988 
L 628 4550 
Q 988 4650 1302 4700 
Q 1616 4750 1894 4750 
Q 2613 4750 3031 4423 
Q 3450 4097 3450 3541 
Q 3450 3153 3228 2886 
Q 3006 2619 2597 2516 
z
" transform="scale(0.015625)"/>
       </defs>
       <use xlink:href="#DejaVuSans-33"/>
       <use xlink:href="#DejaVuSans-30" transform="translate(63.623047 0)"/>
       <use xlink:href="#DejaVuSans-30" transform="translate(127.246094 0)"/>
       <use xlink:href="#DejaVuSans-30" transform="translate(190.869141 0)"/>
      </g>
     </g>
    </g>
    <g id="xtick_5">
     <g id="line2d_9">
      <path d="M 363.938257 318.04 
L 363.938257 48.84 
" clip-path="url(#pe138698817)" style="fill: none; stroke: #b0b0b0; stroke-opacity: 0.3; stroke-width: 0.8; stroke-linecap: square"/>
     </g>
     <g id="line2d_10">
      <g>
       <use xlink:href="#mddac636cde" x="363.938257" y="318.04" style="stroke: #000000; stroke-width: 0.8"/>
      </g>
     </g>
     <g id="text_5">
      <!-- 4000 -->
      <g transform="translate(351.213257 332.638438) scale(0.1 -0.1)">
       <defs>
        <path id="DejaVuSans-34" d="M 2419 4116 
L 825 1625 
L 2419 1625 
L 2419 4116 
z
M 2253 4666 
L 3047 4666 
L 3047 1625 
L 3713 1625 
L 3713 1100 
L 3047 1100 
L 3047 0 
L 2419 0 
L 2419 1100 
L 313 1100 
L 313 1709 
L 2253 4666 
z
" transform="scale(0.015625)"/>
       </defs>
       <use xlink:href="#DejaVuSans-34"/>
       <use xlink:href="#DejaVuSans-30" transform="translate(63.623047 0)"/>
       <use xlink:href="#DejaVuSans-30" transform="translate(127.246094 0)"/>
       <use xlink:href="#DejaVuSans-30" transform="translate(190.869141 0)"/>
      </g>
     </g>
    </g>
    <g id="text_6">
     <!-- Time since phase start (ms) -->
     <g transform="translate(166.31 346.316563) scale(0.1 -0.1)">
      <defs>
       <path id="DejaVuSans-54" d="M -19 4666 
L 3928 4666 
L 3928 4134 
L 2272 4134 
L 2272 0 
L 1638 0 
L 1638 4134 
L -19 4134 
L -19 4666 
z
" transform="scale(0.015625)"/>
       <path id="DejaVuSans-69" d="M 603 3500 
L 1178 3500 
L 1178 0 
L 603 0 
L 603 3500 
z
M 603 4863 
L 1178 4863 
L 1178 4134 
L 603 4134 
L 603 4863 
z
" transform="scale(0.015625)"/>
       <path id="DejaVuSans-6d" d="M 3328 2828 
Q 3544 3216 3844 3400 
Q 4144 3584 4550 3584 
Q 5097 3584 5394 3201 
Q 5691 2819 5691 2113 
L 5691 0 
L 5113 0 
L 5113 2094 
Q 5113 2597 4934 2840 
Q 4756 3084 4391 3084 
Q 3944 3084 3684 2787 
Q 3425 2491 3425 1978 
L 3425 0 
L 2847 0 
L 2847 2094 
Q 2847 2600 2669 2842 
Q 2491 3084 2119 3084 
Q 1678 3084 1418 2786 
Q 1159 2488 1159 1978 
L 1159 0 
L 581 0 
L 581 3500 
L 1159 3500 
L 1159 2956 
Q 1356 3278 1631 3431 
Q 1906 3584 2284 3584 
Q 2666 3584 2933 3390 
Q 3200 3197 3328 2828 
z
" transform="scale(0.015625)"/>
       <path id="DejaVuSans-65" d="M 3597 1894 
L 3597 1613 
L 953 1613 
Q 991 1019 1311 708 
Q 1631 397 2203 397 
Q 2534 397 2845 478 
Q 3156 559 3463 722 
L 3463 178 
Q 3153 47 2828 -22 
Q 2503 -91 2169 -91 
Q 1331 -91 842 396 
Q 353 884 353 1716 
Q 353 2575 817 3079 
Q 1281 3584 2069 3584 
Q 2775 3584 3186 3129 
Q 3597 2675 3597 1894 
z
M 3022 2063 
Q 3016 2534 2758 2815 
Q 2500 3097 2075 3097 
Q 1594 3097 1305 2825 
Q 1016 2553 972 2059 
L 3022 2063 
z
" transform="scale(0.015625)"/>
       <path id="DejaVuSans-20" transform="scale(0.015625)"/>
       <path id="DejaVuSans-73" d="M 2834 3397 
L 2834 2853 
Q 2591 2978 2328 3040 
Q 2066 3103 1784 3103 
Q 1356 3103 1142 2972 
Q 928 2841 928 2578 
Q 928 2378 1081 2264 
Q 1234 2150 1697 2047 
L 1894 2003 
Q 2506 1872 2764 1633 
Q 3022 1394 3022 966 
Q 3022 478 2636 193 
Q 2250 -91 1575 -91 
Q 1294 -91 989 -36 
Q 684 19 347 128 
L 347 722 
Q 666 556 975 473 
Q 1284 391 1588 391 
Q 1994 391 2212 530 
Q 2431 669 2431 922 
Q 2431 1156 2273 1281 
Q 2116 1406 1581 1522 
L 1381 1569 
Q 847 1681 609 1914 
Q 372 2147 372 2553 
Q 372 3047 722 3315 
Q 1072 3584 1716 3584 
Q 2034 3584 2315 3537 
Q 2597 3491 2834 3397 
z
" transform="scale(0.015625)"/>
       <path id="DejaVuSans-6e" d="M 3513 2113 
L 3513 0 
L 2938 0 
L 2938 2094 
Q 2938 2591 2744 2837 
Q 2550 3084 2163 3084 
Q 1697 3084 1428 2787 
Q 1159 2491 1159 1978 
L 1159 0 
L 581 0 
L 581 3500 
L 1159 3500 
L 1159 2956 
Q 1366 3272 1645 3428 
Q 1925 3584 2291 3584 
Q 2894 3584 3203 3211 
Q 3513 2838 3513 2113 
z
" transform="scale(0.015625)"/>
       <path id="DejaVuSans-63" d="M 3122 3366 
L 3122 2828 
Q 2878 2963 2633 3030 
Q 2388 3097 2138 3097 
Q 1578 3097 1268 2742 
Q 959 2388 959 1747 
Q 959 1106 1268 751 
Q 1578 397 2138 397 
Q 2388 397 2633 464 
Q 2878 531 3122 666 
L 3122 134 
Q 2881 22 2623 -34 
Q 2366 -91 2075 -91 
Q 1284 -91 818 406 
Q 353 903 353 1747 
Q 353 2603 823 3093 
Q 1294 3584 2113 3584 
Q 2378 3584 2631 3529 
Q 2884 3475 3122 3366 
z
" transform="scale(0.015625)"/>
       <path id="DejaVuSans-70" d="M 1159 525 
L 1159 -1331 
L 581 -1331 
L 581 3500 
L 1159 3500 
L 1159 2969 
Q 1341 3281 1617 3432 
Q 1894 3584 2278 3584 
Q 2916 3584 3314 3078 
Q 3713 2572 3713 1747 
Q 3713 922 3314 415 
Q 2916 -91 2278 -91 
Q 1894 -91 1617 61 
Q 1341 213 1159 525 
z
M 3116 1747 
Q 3116 2381 2855 2742 
Q 2594 3103 2138 3103 
Q 1681 3103 1420 2742 
Q 1159 2381 1159 1747 
Q 1159 1113 1420 752 
Q 1681 391 2138 391 
Q 2594 391 2855 752 
Q 3116 1113 3116 1747 
z
" transform="scale(0.015625)"/>
       <path id="DejaVuSans-68" d="M 3513 2113 
L 3513 0 
L 2938 0 
L 2938 2094 
Q 2938 2591 2744 2837 
Q 2550 3084 2163 3084 
Q 1697 3084 1428 2787 
Q 1159 2491 1159 1978 
L 1159 0 
L 581 0 
L 581 4863 
L 1159 4863 
L 1159 2956 
Q 1366 3272 1645 3428 
Q 1925 3584 2291 3584 
Q 2894 3584 3203 3211 
Q 3513 2838 3513 2113 
z
" transform="scale(0.015625)"/>
       <path id="DejaVuSans-61" d="M 2194 1759 
Q 1497 1759 1228 1600 
Q 959 1441 959 1056 
Q 959 750 1161 570 
Q 1363 391 1709 391 
Q 2188 391 2477 730 
Q 2766 1069 2766 1631 
L 2766 1759 
L 2194 1759 
z
M 3341 1997 
L 3341 0 
L 2766 0 
L 2766 531 
Q 2569 213 2275 61 
Q 1981 -91 1556 -91 
Q 1019 -91 701 211 
Q 384 513 384 1019 
Q 384 1609 779 1909 
Q 1175 2209 1959 2209 
L 2766 2209 
L 2766 2266 
Q 2766 2663 2505 2880 
Q 2244 3097 1772 3097 
Q 1472 3097 1187 3025 
Q 903 2953 641 2809 
L 641 3341 
Q 956 3463 1253 3523 
Q 1550 3584 1831 3584 
Q 2591 3584 2966 3190 
Q 3341 2797 3341 1997 
z
" transform="scale(0.015625)"/>
       <path id="DejaVuSans-74" d="M 1172 4494 
L 1172 3500 
L 2356 3500 
L 2356 3053 
L 1172 3053 
L 1172 1153 
Q 1172 725 1289 603 
Q 1406 481 1766 481 
L 2356 481 
L 2356 0 
L 1766 0 
Q 1100 0 847 248 
Q 594 497 594 1153 
L 594 3053 
L 172 3053 
L 172 3500 
L 594 3500 
L 594 4494 
L 1172 4494 
z
" transform="scale(0.015625)"/>
       <path id="DejaVuSans-72" d="M 2631 2963 
Q 2534 3019 2420 3045 
Q 2306 3072 2169 3072 
Q 1681 3072 1420 2755 
Q 1159 2438 1159 1844 
L 1159 0 
L 581 0 
L 581 3500 
L 1159 3500 
L 1159 2956 
Q 1341 3275 1631 3429 
Q 1922 3584 2338 3584 
Q 2397 3584 2469 3576 
Q 2541 3569 2628 3553 
L 2631 2963 
z
" transform="scale(0.015625)"/>
       <path id="DejaVuSans-28" d="M 1984 4856 
Q 1566 4138 1362 3434 
Q 1159 2731 1159 2009 
Q 1159 1288 1364 580 
Q 1569 -128 1984 -844 
L 1484 -844 
Q 1016 -109 783 600 
Q 550 1309 550 2009 
Q 550 2706 781 3412 
Q 1013 4119 1484 4856 
L 1984 4856 
z
" transform="scale(0.015625)"/>
       <path id="DejaVuSans-29" d="M 513 4856 
L 1013 4856 
Q 1481 4119 1714 3412 
Q 1947 2706 1947 2009 
Q 1947 1309 1714 600 
Q 1481 -109 1013 -844 
L 513 -844 
Q 928 -128 1133 580 
Q 1338 1288 1338 2009 
Q 1338 2731 1133 3434 
Q 928 4138 513 4856 
z
" transform="scale(0.015625)"/>
      </defs>
      <use xlink:href="#DejaVuSans-54"/>
      <use xlink:href="#DejaVuSans-69" transform="translate(57.958984 0)"/>
      <use xlink:href="#DejaVuSans-6d" transform="translate(85.742188 0)"/>
      <use xlink:href="#DejaVuSans-65" transform="translate(183.154297 0)"/>
      <use xlink:href="#DejaVuSans-20" transform="translate(244.677734 0)"/>
      <use xlink:href="#DejaVuSans-73" transform="translate(276.464844 0)"/>
      <use xlink:href="#DejaVuSans-69" transform="translate(328.564453 0)"/>
      <use xlink:href="#DejaVuSans-6e" transform="translate(356.347656 0)"/>
      <use xlink:href="#DejaVuSans-63" transform="translate(419.726562 0)"/>
      <use xlink:href="#DejaVuSans-65" transform="translate(474.707031 0)"/>
      <use xlink:href="#DejaVuSans-20" transform="translate(536.230469 0)"/>
      <use xlink:href="#DejaVuSans-70" transform="translate(568.017578 0)"/>
      <use xlink:href="#DejaVuSans-68" transform="translate(631.494141 0)"/>
      <use xlink:href="#DejaVuSans-61" transform="translate(694.873047 0)"/>
      <use xlink:href="#DejaVuSans-73" transform="translate(756.152344 0)"/>
      <use xlink:href="#DejaVuSans-65" transform="translate(808.251953 0)"/>
      <use xlink:href="#DejaVuSans-20" transform="translate(869.775391 0)"/>
      <use xlink:href="#DejaVuSans-73" transform="translate(901.5625 0)"/>
      <use xlink:href="#DejaVuSans-74" transform="translate(953.662109 0)"/>
      <use xlink:href="#DejaVuSans-61" transform="translate(992.871094 0)"/>
      <use xlink:href="#DejaVuSans-72" transform="translate(1054.150391 0)"/>
      <use xlink:href="#DejaVuSans-74" transform="translate(1095.263672 0)"/>
      <use xlink:href="#DejaVuSans-20" transform="translate(1134.472656 0)"/>
      <use xlink:href="#DejaVuSans-28" transform="translate(1166.259766 0)"/>
      <use xlink:href="#DejaVuSans-6d" transform="translate(1205.273438 0)"/>
      <use xlink:href="#DejaVuSans-73" transform="translate(1302.685547 0)"/>
      <use xlink:href="#DejaVuSans-29" transform="translate(1354.785156 0)"/>
     </g>
    </g>
   </g>
   <g id="matplotlib.axis_2">
    <g id="ytick_1">
     <g id="line2d_11">
      <path d="M 47.855 305.803636 
L 424.14 305.803636 
" clip-path="url(#pe138698817)" style="fill: none; stroke: #b0b0b0; stroke-opacity: 0.3; stroke-width: 0.8; stroke-linecap: square"/>
     </g>
     <g id="line2d_12">
      <defs>
       <path id="m46bbae6f4f" d="M 0 0 
L -3.5 0 
" style="stroke: #000000; stroke-width: 0.8"/>
      </defs>
      <g>
       <use xlink:href="#m46bbae6f4f" x="47.855" y="305.803636" style="stroke: #000000; stroke-width: 0.8"/>
      </g>
     </g>
     <g id="text_7">
      <!-- 0.0 -->
      <g transform="translate(24.951875 309.602855) scale(0.1 -0.1)">
       <defs>
        <path id="DejaVuSans-2e" d="M 684 794 
L 1344 794 
L 1344 0 
L 684 0 
L 684 794 
z
" transform="scale(0.015625)"/>
       </defs>
       <use xlink:href="#DejaVuSans-30"/>
       <use xlink:href="#DejaVuSans-2e" transform="translate(63.623047 0)"/>
       <use xlink:href="#DejaVuSans-30" transform="translate(95.410156 0)"/>
      </g>
     </g>
    </g>
    <g id="ytick_2">
     <g id="line2d_13">
      <path d="M 47.855 273.483606 
L 424.14 273.483606 
" clip-path="url(#pe138698817)" style="fill: none; stroke: #b0b0b0; stroke-opacity: 0.3; stroke-width: 0.8; stroke-linecap: square"/>
     </g>
     <g id="line2d_14">
      <g>
       <use xlink:href="#m46bbae6f4f" x="47.855" y="273.483606" style="stroke: #000000; stroke-width: 0.8"/>
      </g>
     </g>
     <g id="text_8">
      <!-- 0.1 -->
      <g transform="translate(24.951875 277.282824) scale(0.1 -0.1)">
       <use xlink:href="#DejaVuSans-30"/>
       <use xlink:href="#DejaVuSans-2e" transform="translate(63.623047 0)"/>
       <use xlink:href="#DejaVuSans-31" transform="translate(95.410156 0)"/>
      </g>
     </g>
    </g>
    <g id="ytick_3">
     <g id="line2d_15">
      <path d="M 47.855 241.163575 
L 424.14 241.163575 
" clip-path="url(#pe138698817)" style="fill: none; stroke: #b0b0b0; stroke-opacity: 0.3; stroke-width: 0.8; stroke-linecap: square"/>
     </g>
     <g id="line2d_16">
      <g>
       <use xlink:href="#m46bbae6f4f" x="47.855" y="241.163575" style="stroke: #000000; stroke-width: 0.8"/>
      </g>
     </g>
     <g id="text_9">
      <!-- 0.2 -->
      <g transform="translate(24.951875 244.962794) scale(0.1 -0.1)">
       <use xlink:href="#DejaVuSans-30"/>
       <use xlink:href="#DejaVuSans-2e" transform="translate(63.623047 0)"/>
       <use xlink:href="#DejaVuSans-32" transform="translate(95.410156 0)"/>
      </g>
     </g>
    </g>
    <g id="ytick_4">
     <g id="line2d_17">
      <path d="M 47.855 208.843544 
L 424.14 208.843544 
" clip-path="url(#pe138698817)" style="fill: none; stroke: #b0b0b0; stroke-opacity: 0.3; stroke-width: 0.8; stroke-linecap: square"/>
     </g>
     <g id="line2d_18">
      <g>
       <use xlink:href="#m46bbae6f4f" x="47.855" y="208.843544" style="stroke: #000000; stroke-width: 0.8"/>
      </g>
     </g>
     <g id="text_10">
      <!-- 0.3 -->
      <g transform="translate(24.951875 212.642763) scale(0.1 -0.1)">
       <use xlink:href="#DejaVuSans-30"/>
       <use xlink:href="#DejaVuSans-2e" transform="translate(63.623047 0)"/>
       <use xlink:href="#DejaVuSans-33" transform="translate(95.410156 0)"/>
      </g>
     </g>
    </g>
    <g id="ytick_5">
     <g id="line2d_19">
      <path d="M 47.855 176.523513 
L 424.14 176.523513 
" clip-path="url(#pe138698817)" style="fill: none; stroke: #b0b0b0; stroke-opacity: 0.3; stroke-width: 0.8; stroke-linecap: square"/>
     </g>
     <g id="line2d_20">
      <g>
       <use xlink:href="#m46bbae6f4f" x="47.855" y="176.523513" style="stroke: #000000; stroke-width: 0.8"/>
      </g>
     </g>
     <g id="text_11">
      <!-- 0.4 -->
      <g transform="translate(24.951875 180.322732) scale(0.1 -0.1)">
       <use xlink:href="#DejaVuSans-30"/>
       <use xlink:href="#DejaVuSans-2e" transform="translate(63.623047 0)"/>
       <use xlink:href="#DejaVuSans-34" transform="translate(95.410156 0)"/>
      </g>
     </g>
    </g>
    <g id="ytick_6">
     <g id="line2d_21">
      <path d="M 47.855 144.203483 
L 424.14 144.203483 
" clip-path="url(#pe138698817)" style="fill: none; stroke: #b0b0b0; stroke-opacity: 0.3; stroke-width: 0.8; stroke-linecap: square"/>
     </g>
     <g id="line2d_22">
      <g>
       <use xlink:href="#m46bbae6f4f" x="47.855" y="144.203483" style="stroke: #000000; stroke-width: 0.8"/>
      </g>
     </g>
     <g id="text_12">
      <!-- 0.5 -->
      <g transform="translate(24.951875 148.002701) scale(0.1 -0.1)">
       <defs>
        <path id="DejaVuSans-35" d="M 691 4666 
L 3169 4666 
L 3169 4134 
L 1269 4134 
L 1269 2991 
Q 1406 3038 1543 3061 
Q 1681 3084 1819 3084 
Q 2600 3084 3056 2656 
Q 3513 2228 3513 1497 
Q 3513 744 3044 326 
Q 2575 -91 1722 -91 
Q 1428 -91 1123 -41 
Q 819 9 494 109 
L 494 744 
Q 775 591 1075 516 
Q 1375 441 1709 441 
Q 2250 441 2565 725 
Q 2881 1009 2881 1497 
Q 2881 1984 2565 2268 
Q 2250 2553 1709 2553 
Q 1456 2553 1204 2497 
Q 953 2441 691 2322 
L 691 4666 
z
" transform="scale(0.015625)"/>
       </defs>
       <use xlink:href="#DejaVuSans-30"/>
       <use xlink:href="#DejaVuSans-2e" transform="translate(63.623047 0)"/>
       <use xlink:href="#DejaVuSans-35" transform="translate(95.410156 0)"/>
      </g>
     </g>
    </g>
    <g id="ytick_7">
     <g id="line2d_23">
      <path d="M 47.855 111.883452 
L 424.14 111.883452 
" clip-path="url(#pe138698817)" style="fill: none; stroke: #b0b0b0; stroke-opacity: 0.3; stroke-width: 0.8; stroke-linecap: square"/>
     </g>
     <g id="line2d_24">
      <g>
       <use xlink:href="#m46bbae6f4f" x="47.855" y="111.883452" style="stroke: #000000; stroke-width: 0.8"/>
      </g>
     </g>
     <g id="text_13">
      <!-- 0.6 -->
      <g transform="translate(24.951875 115.682671) scale(0.1 -0.1)">
       <defs>
        <path id="DejaVuSans-36" d="M 2113 2584 
Q 1688 2584 1439 2293 
Q 1191 2003 1191 1497 
Q 1191 994 1439 701 
Q 1688 409 2113 409 
Q 2538 409 2786 701 
Q 3034 994 3034 1497 
Q 3034 2003 2786 2293 
Q 2538 2584 2113 2584 
z
M 3366 4563 
L 3366 3988 
Q 3128 4100 2886 4159 
Q 2644 4219 2406 4219 
Q 1781 4219 1451 3797 
Q 1122 3375 1075 2522 
Q 1259 2794 1537 2939 
Q 1816 3084 2150 3084 
Q 2853 3084 3261 2657 
Q 3669 2231 3669 1497 
Q 3669 778 3244 343 
Q 2819 -91 2113 -91 
Q 1303 -91 875 529 
Q 447 1150 447 2328 
Q 447 3434 972 4092 
Q 1497 4750 2381 4750 
Q 2619 4750 2861 4703 
Q 3103 4656 3366 4563 
z
" transform="scale(0.015625)"/>
       </defs>
       <use xlink:href="#DejaVuSans-30"/>
       <use xlink:href="#DejaVuSans-2e" transform="translate(63.623047 0)"/>
       <use xlink:href="#DejaVuSans-36" transform="translate(95.410156 0)"/>
      </g>
     </g>
    </g>
    <g id="ytick_8">
     <g id="line2d_25">
      <path d="M 47.855 79.563421 
L 424.14 79.563421 
" clip-path="url(#pe138698817)" style="fill: none; stroke: #b0b0b0; stroke-opacity: 0.3; stroke-width: 0.8; stroke-linecap: square"/>
     </g>
     <g id="line2d_26">
      <g>
       <use xlink:href="#m46bbae6f4f" x="47.855" y="79.563421" style="stroke: #000000; stroke-width: 0.8"/>
      </g>
     </g>
     <g id="text_14">
      <!-- 0.7 -->
      <g transform="translate(24.951875 83.36264) scale(0.1 -0.1)">
       <defs>
        <path id="DejaVuSans-37" d="M 525 4666 
L 3525 4666 
L 3525 4397 
L 1831 0 
L 1172 0 
L 2766 4134 
L 525 4134 
L 525 4666 
z
" transform="scale(0.015625)"/>
       </defs>
       <use xlink:href="#DejaVuSans-30"/>
       <use xlink:href="#DejaVuSans-2e" transform="translate(63.623047 0)"/>
       <use xlink:href="#DejaVuSans-37" transform="translate(95.410156 0)"/>
      </g>
     </g>
    </g>
    <g id="text_15">
     <!-- Current (A) -->
     <g transform="translate(18.872187 211.1275) rotate(-90) scale(0.1 -0.1)">
      <defs>
       <path id="DejaVuSans-43" d="M 4122 4306 
L 4122 3641 
Q 3803 3938 3442 4084 
Q 3081 4231 2675 4231 
Q 1875 4231 1450 3742 
Q 1025 3253 1025 2328 
Q 1025 1406 1450 917 
Q 1875 428 2675 428 
Q 3081 428 3442 575 
Q 3803 722 4122 1019 
L 4122 359 
Q 3791 134 3420 21 
Q 3050 -91 2638 -91 
Q 1578 -91 968 557 
Q 359 1206 359 2328 
Q 359 3453 968 4101 
Q 1578 4750 2638 4750 
Q 3056 4750 3426 4639 
Q 3797 4528 4122 4306 
z
" transform="scale(0.015625)"/>
       <path id="DejaVuSans-75" d="M 544 1381 
L 544 3500 
L 1119 3500 
L 1119 1403 
Q 1119 906 1312 657 
Q 1506 409 1894 409 
Q 2359 409 2629 706 
Q 2900 1003 2900 1516 
L 2900 3500 
L 3475 3500 
L 3475 0 
L 2900 0 
L 2900 538 
Q 2691 219 2414 64 
Q 2138 -91 1772 -91 
Q 1169 -91 856 284 
Q 544 659 544 1381 
z
M 1991 3584 
L 1991 3584 
z
" transform="scale(0.015625)"/>
       <path id="DejaVuSans-41" d="M 2188 4044 
L 1331 1722 
L 3047 1722 
L 2188 4044 
z
M 1831 4666 
L 2547 4666 
L 4325 0 
L 3669 0 
L 3244 1197 
L 1141 1197 
L 716 0 
L 50 0 
L 1831 4666 
z
" transform="scale(0.015625)"/>
      </defs>
      <use xlink:href="#DejaVuSans-43"/>
      <use xlink:href="#DejaVuSans-75" transform="translate(69.824219 0)"/>
      <use xlink:href="#DejaVuSans-72" transform="translate(133.203125 0)"/>
      <use xlink:href="#DejaVuSans-72" transform="translate(172.566406 0)"/>
      <use xlink:href="#DejaVuSans-65" transform="translate(211.429688 0)"/>
      <use xlink:href="#DejaVuSans-6e" transform="translate(272.953125 0)"/>
      <use xlink:href="#DejaVuSans-74" transform="translate(336.332031 0)"/>
      <use xlink:href="#DejaVuSans-20" transform="translate(375.541016 0)"/>
      <use xlink:href="#DejaVuSans-28" transform="translate(407.328125 0)"/>
      <use xlink:href="#DejaVuSans-41" transform="translate(446.341797 0)"/>
      <use xlink:href="#DejaVuSans-29" transform="translate(514.75 0)"/>
     </g>
    </g>
   </g>
   <g id="line2d_27">
    <path d="M 65.564297 248.920382 
L 73.300389 167.700145 
L 80.849618 165.373103 
L 88.398848 187.997124 
L 101.553941 198.145614 
L 103.467409 196.529612 
L 111.08391 195.624652 
L 118.655563 194.881291 
L 126.197318 191.455368 
L 133.761496 189.677766 
L 142.723404 184.700481 
L 148.792685 193.87937 
L 156.48393 212.301787 
L 164.092956 226.942761 
L 171.559966 236.994291 
L 179.826747 247.175101 
L 186.621053 254.705668 
L 194.222604 258.584071 
L 202.459487 263.884557 
L 209.313589 268.700241 
L 216.825446 269.572882 
L 225.189395 272.610965 
L 231.998651 271.091923 
L 239.719793 268.635601 
L 248.106165 273.160405 
L 258.398531 269.863762 
L 262.188095 267.5044 
L 270.454875 263.625996 
L 278.116222 258.196231 
L 285.889686 253.639107 
L 292.399963 247.0135 
L 301.197431 235.89541 
L 309.464211 223.290598 
L 315.062601 208.617304 
L 324.226319 187.221444 
L 337.373938 189.451526 
L 337.822407 191.358408 
L 347.255207 193.68545 
L 355.208059 195.333771 
L 362.637696 194.558091 
L 370.351365 196.141772 
L 377.952916 197.854734 
L 383.655948 198.371854 
L 391.369616 187.932484 
L 398.851575 177.622394 
" clip-path="url(#pe138698817)" style="fill: none; stroke: #e67e22; stroke-opacity: 0.35; stroke-width: 0.6; stroke-linecap: square"/>
   </g>
   <g id="line2d_28">
    <path d="M 71.588732 141.10076 
L 85.678136 182.92288 
L 85.700559 185.993282 
L 88.406323 195.592332 
L 95.963027 195.139851 
L 103.512256 196.723533 
L 111.113807 195.366091 
L 118.737782 194.04097 
L 126.287012 192.812809 
L 133.791394 191.681608 
L 141.415369 189.645446 
L 148.964599 195.042891 
L 156.573624 211.816987 
L 164.063058 226.199401 
L 171.597339 238.384052 
L 179.11667 248.177022 
L 186.778017 254.737988 
L 194.230079 262.074635 
L 201.764359 265.500558 
L 209.791956 263.496716 
L 216.907666 258.099271 
L 225.137074 250.859584 
L 232.88064 243.684537 
L 244.966882 232.986607 
L 247.112059 218.345633 
L 255.969323 203.187539 
L 263.593298 187.544644 
L 271.262119 190.582727 
L 277.34635 191.390728 
L 286.569864 193.394569 
L 292.42986 195.592332 
L 302.034573 195.850892 
L 309.658548 196.464972 
L 320.646041 197.951694 
L 322.723947 198.145614 
L 332.702385 200.731216 
L 340.475849 195.107531 
" clip-path="url(#pe138698817)" style="fill: none; stroke: #e67e22; stroke-opacity: 0.35; stroke-width: 0.6; stroke-linecap: square"/>
   </g>
   <g id="line2d_29">
    <path d="M 65.73621 198.113294 
L 73.315338 190.485767 
L 80.90194 190.130246 
L 88.43622 198.274894 
L 96.030297 197.369933 
L 103.519731 195.042891 
L 111.121282 194.848971 
L 118.752731 193.58849 
L 134.023103 191.196807 
L 134.060476 187.867844 
L 141.669501 184.926721 
L 149.398119 192.521929 
L 156.491405 210.685786 
L 166.910837 225.13284 
L 171.604813 235.96005 
L 180.050981 246.17318 
L 187.816971 254.285507 
L 195.425996 257.743751 
L 203.236833 263.561356 
L 211.451292 267.79528 
L 218.469833 270.671763 
L 225.503323 271.738324 
L 233.889695 270.607123 
L 239.69737 268.991121 
L 247.156906 271.059603 
L 256.798991 270.445523 
L 264.602353 266.340879 
L 272.308547 263.852236 
L 279.954945 256.74183 
L 289.858638 252.087745 
L 295.322486 246.17318 
L 302.991308 235.79845 
L 310.704976 221.933157 
L 315.099973 208.520344 
L 326.124838 190.421127 
L 330.198432 188.417285 
L 341.432583 190.970567 
L 349.131302 193.394569 
L 356.785175 194.26721 
L 367.653076 195.042891 
L 368.0268 196.400332 
L 379.851435 197.887054 
L 387.535205 197.628493 
L 390.823979 197.919374 
L 398.223719 199.632335 
" clip-path="url(#pe138698817)" style="fill: none; stroke: #e67e22; stroke-opacity: 0.35; stroke-width: 0.6; stroke-linecap: square"/>
   </g>
   <g id="line2d_30">
    <path d="M 65.825904 61.076364 
L 79.780767 176.911354 
L 80.924363 179.044476 
L 88.398848 193.84705 
L 100.425294 195.269131 
L 108.146437 194.04097 
L 115.747988 195.139851 
L 125.591885 195.301451 
L 131.152901 192.683529 
L 138.791825 191.067527 
L 148.665619 188.740485 
L 148.919752 193.94401 
L 160.258545 211.235226 
L 164.063058 226.102441 
L 179.19889 238.674933 
L 184.909396 248.080061 
L 192.593167 254.156227 
L 194.21513 260.878794 
L 209.851752 265.726798 
L 209.866701 260.458633 
L 223.313299 257.776071 
L 224.449421 250.827264 
L 236.617882 243.135097 
L 239.585253 231.920046 
L 249.077848 218.216353 
L 255.774987 201.765457 
L 263.555926 187.544644 
L 269.767222 188.999045 
L 279.087905 191.584648 
L 286.988436 191.326087 
L 293.932232 194.13793 
L 300.165952 196.271052 
L 307.999212 195.430731 
L 315.122396 196.626573 
L 325.534354 197.757774 
L 332.859349 198.727375 
L 337.747662 189.192965 
" clip-path="url(#pe138698817)" style="fill: none; stroke: #e67e22; stroke-opacity: 0.35; stroke-width: 0.6; stroke-linecap: square"/>
   </g>
   <g id="line2d_31">
    <path d="M 65.594195 205.256021 
L 73.846026 185.217602 
L 80.75245 184.377281 
L 93.279687 195.560012 
L 95.850909 196.497292 
L 103.557103 195.656972 
L 112.137812 194.525771 
L 119.836531 192.780489 
L 127.587572 190.518087 
L 135.204072 186.995203 
L 141.340624 184.926721 
L 150.53424 192.586569 
L 158.23296 211.429147 
L 181.956975 237.349811 
L 181.994347 246.33478 
L 188.968041 254.608708 
L 196.651812 258.163911 
L 204.328108 264.337037 
L 209.425706 268.05384 
L 219.718072 269.605202 
L 224.471844 271.091923 
L 235.055715 271.156563 
L 249.974787 269.443602 
L 249.989736 271.770644 
L 258.062179 269.475922 
L 265.775848 266.696399 
L 273.49699 263.787596 
L 278.856196 258.196231 
L 284.932952 252.734146 
L 292.482182 242.908857 
L 300.038886 235.83077 
L 311.953215 223.355238 
L 320.317163 207.453783 
L 342.374368 188.934405 
L 342.523858 191.002887 
L 350.267424 191.326087 
L 358.003516 193.71777 
L 361.135325 195.301451 
L 368.60981 195.236811 
L 376.271157 195.656972 
L 383.887657 197.402253 
L 396.370047 198.985935 
L 407.036136 193.52385 
" clip-path="url(#pe138698817)" style="fill: none; stroke: #e67e22; stroke-opacity: 0.35; stroke-width: 0.6; stroke-linecap: square"/>
   </g>
   <g id="line2d_32">
    <path d="M 65.078455 109.297849 
L 72.717379 184.894401 
L 81.492424 186.801283 
L 89.96849 192.521929 
L 96.807643 193.84705 
L 107.795136 195.236811 
L 112.496587 194.29953 
L 119.829057 194.39649 
L 125.539563 191.746248 
L 134.053001 190.130246 
L 140.645497 189.160645 
L 149.375695 194.07329 
L 155.729007 209.651545 
L 163.330558 226.942761 
L 170.857365 238.707253 
L 178.39912 248.015421 
L 186.120263 254.479428 
L 193.460207 260.167753 
L 201.069232 264.918797 
L 208.640886 263.076556 
L 218.634272 258.519431 
L 223.642177 251.667585 
L 233.889695 243.070457 
L 238.83033 232.146286 
L 246.521575 218.377953 
L 254.078279 202.347218 
L 264.587404 187.544644 
L 269.027248 189.904006 
L 276.613851 191.907848 
L 284.290146 191.746248 
L 291.704835 194.752011 
L 299.298912 194.42881 
L 310.682552 195.818572 
L 314.404846 196.335692 
L 322.02882 197.369933 
L 329.533203 199.018255 
L 342.972327 196.691213 
" clip-path="url(#pe138698817)" style="fill: none; stroke: #e67e22; stroke-opacity: 0.35; stroke-width: 0.6; stroke-linecap: square"/>
   </g>
   <g id="line2d_33">
    <path d="M 64.958864 164.532782 
L 70.938452 141.10076 
L 72.433348 182.074479 
L 78.412936 176.911354 
L 79.907833 179.731276 
L 81.40273 186.801283 
L 84.392524 184.458081 
L 87.382318 193.92785 
L 88.877215 192.521929 
L 91.867009 195.560012 
L 94.856803 196.335692 
L 96.3517 193.84705 
L 99.341494 195.269131 
L 100.836391 198.145614 
L 102.331288 195.988252 
L 106.815979 194.638891 
L 109.805773 195.279905 
L 111.30067 194.41265 
L 114.290464 195.139851 
L 118.775154 193.58849 
L 124.754742 192.834356 
L 126.249639 191.665448 
L 130.73433 192.683529 
L 133.724124 189.591579 
L 138.208815 191.067527 
L 139.703712 189.160645 
L 141.198609 186.49963 
L 142.693506 184.700481 
L 147.178197 188.740485 
L 148.673094 193.892298 
L 150.167991 192.586569 
L 154.652682 209.651545 
L 156.147579 211.60152 
L 159.137372 211.235226 
L 162.127166 226.942761 
L 163.622063 226.414868 
L 166.611857 225.13284 
L 169.601651 238.707253 
L 171.096548 237.112798 
L 177.076136 248.015421 
L 178.571033 245.050059 
L 181.560827 241.842296 
L 184.550621 248.080061 
L 186.045518 254.641028 
L 187.540415 254.447108 
L 192.025106 257.16199 
L 193.520003 260.5125 
L 195.0149 257.743751 
L 196.509797 258.163911 
L 200.994488 264.767971 
L 202.489385 263.561356 
L 203.984281 264.337037 
L 208.468972 264.918797 
L 209.963869 267.79528 
L 215.943457 263.836076 
L 217.438354 264.595597 
L 218.933251 269.605202 
L 221.923045 257.776071 
L 223.417942 257.862257 
L 224.912839 265.069624 
L 230.892427 271.091923 
L 232.387324 243.684537 
L 233.882221 261.611381 
L 235.377118 243.135097 
L 238.366912 250.423264 
L 244.3465 232.986607 
L 245.841397 235.92773 
L 247.336293 273.160405 
L 248.83119 253.143533 
L 253.315881 202.347218 
L 254.810778 202.476498 
L 256.305675 270.445523 
L 257.800572 269.669842 
L 260.790366 267.5044 
L 262.285263 187.544644 
L 265.275057 266.696399 
L 268.264851 189.904006 
L 269.759748 226.312521 
L 271.254645 227.217482 
L 272.749542 263.787596 
L 275.739336 191.907848 
L 277.234233 224.793479 
L 278.72913 235.50757 
L 283.213821 191.746248 
L 284.708718 253.186626 
L 286.203615 192.360328 
L 289.193409 252.087745 
L 290.688306 194.752011 
L 292.183202 228.504896 
L 293.678099 194.13793 
L 295.172996 246.17318 
L 298.16279 194.42881 
L 299.657687 216.050911 
L 301.152584 215.873151 
L 302.647481 235.79845 
L 307.132172 195.430731 
L 308.627069 209.877785 
L 310.121966 208.875864 
L 311.616863 223.355238 
L 313.11176 196.335692 
L 314.606657 204.588073 
L 319.091348 207.453783 
L 320.586245 197.660814 
L 322.081142 198.145614 
L 323.576039 187.221444 
L 325.070936 194.08945 
L 328.06073 199.018255 
L 329.555627 188.417285 
L 332.545421 199.729295 
L 337.030111 190.000966 
L 340.019905 193.039049 
L 341.514802 192.209502 
L 345.999493 193.68545 
L 348.989287 192.360328 
L 354.968875 195.333771 
L 356.463772 194.26721 
L 357.958669 193.71777 
L 360.948463 195.301451 
L 362.44336 194.558091 
L 366.928051 195.721612 
L 368.422948 195.236811 
L 369.917845 196.141772 
L 375.897433 195.656972 
L 377.39233 197.854734 
L 383.371917 197.887054 
L 386.361711 197.628493 
L 389.351505 197.919374 
L 390.846402 187.932484 
L 395.331093 198.985935 
L 396.82599 199.632335 
L 398.320887 177.622394 
L 405.795372 193.52385 
L 405.795372 193.52385 
" clip-path="url(#pe138698817)" style="fill: none; stroke: #e67e22; stroke-width: 2; stroke-linecap: square"/>
   </g>
   <g id="line2d_34">
    <path d="M 47.855 305.803636 
L 424.14 305.803636 
" clip-path="url(#pe138698817)" style="fill: none; stroke-dasharray: 1.85,0.8; stroke-dashoffset: 0; stroke: #aaaaaa; stroke-width: 0.5"/>
   </g>
   <g id="patch_3">
    <path d="M 47.855 318.04 
L 47.855 48.84 
" style="fill: none; stroke: #000000; stroke-width: 0.8; stroke-linejoin: miter; stroke-linecap: square"/>
   </g>
   <g id="patch_4">
    <path d="M 424.14 318.04 
L 424.14 48.84 
" style="fill: none; stroke: #000000; stroke-width: 0.8; stroke-linejoin: miter; stroke-linecap: square"/>
   </g>
   <g id="patch_5">
    <path d="M 47.855 318.04 
L 424.14 318.04 
" style="fill: none; stroke: #000000; stroke-width: 0.8; stroke-linejoin: miter; stroke-linecap: square"/>
   </g>
   <g id="patch_6">
    <path d="M 47.855 48.84 
L 424.14 48.84 
" style="fill: none; stroke: #000000; stroke-width: 0.8; stroke-linejoin: miter; stroke-linecap: square"/>
   </g>
   <g id="text_16">
    <!-- Idle -->
    <g transform="translate(225.059687 42.84) scale(0.12 -0.12)">
     <defs>
      <path id="DejaVuSans-49" d="M 628 4666 
L 1259 4666 
L 1259 0 
L 628 0 
L 628 4666 
z
" transform="scale(0.015625)"/>
      <path id="DejaVuSans-64" d="M 2906 2969 
L 2906 4863 
L 3481 4863 
L 3481 0 
L 2906 0 
L 2906 525 
Q 2725 213 2448 61 
Q 2172 -91 1784 -91 
Q 1150 -91 751 415 
Q 353 922 353 1747 
Q 353 2572 751 3078 
Q 1150 3584 1784 3584 
Q 2172 3584 2448 3432 
Q 2725 3281 2906 2969 
z
M 947 1747 
Q 947 1113 1208 752 
Q 1469 391 1925 391 
Q 2381 391 2643 752 
Q 2906 1113 2906 1747 
Q 2906 2381 2643 2742 
Q 2381 3103 1925 3103 
Q 1469 3103 1208 2742 
Q 947 2381 947 1747 
z
" transform="scale(0.015625)"/>
      <path id="DejaVuSans-6c" d="M 603 4863 
L 1178 4863 
L 1178 0 
L 603 0 
L 603 4863 
z
" transform="scale(0.015625)"/>
     </defs>
     <use xlink:href="#DejaVuSans-49"/>
     <use xlink:href="#DejaVuSans-64" transform="translate(29.492188 0)"/>
     <use xlink:href="#DejaVuSans-6c" transform="translate(92.96875 0)"/>
     <use xlink:href="#DejaVuSans-65" transform="translate(120.751953 0)"/>
    </g>
   </g>
   <g id="legend_1">
    <g id="patch_7">
     <path d="M 370.2525 66.9825 
L 418.54 66.9825 
Q 420.14 66.9825 420.14 65.3825 
L 420.14 54.44 
Q 420.14 52.84 418.54 52.84 
L 370.2525 52.84 
Q 368.6525 52.84 368.6525 54.44 
L 368.6525 65.3825 
Q 368.6525 66.9825 370.2525 66.9825 
z
" style="fill: #ffffff; opacity: 0.8; stroke: #cccccc; stroke-linejoin: miter"/>
    </g>
    <g id="line2d_35">
     <path d="M 371.8525 59.31875 
L 379.8525 59.31875 
L 387.8525 59.31875 
" style="fill: none; stroke: #e67e22; stroke-width: 2; stroke-linecap: square"/>
    </g>
    <g id="text_17">
     <!-- mean -->
     <g transform="translate(394.2525 62.11875) scale(0.08 -0.08)">
      <use xlink:href="#DejaVuSans-6d"/>
      <use xlink:href="#DejaVuSans-65" transform="translate(97.412109 0)"/>
      <use xlink:href="#DejaVuSans-61" transform="translate(158.935547 0)"/>
      <use xlink:href="#DejaVuSans-6e" transform="translate(220.214844 0)"/>
     </g>
    </g>
   </g>
  </g>
  <g id="axes_2">
   <g id="patch_8">
    <path d="M 478.385 318.04 
L 854.67 318.04 
L 854.67 48.84 
L 478.385 48.84 
z
" style="fill: #ffffff"/>
   </g>
   <g id="matplotlib.axis_3">
    <g id="xtick_6">
     <g id="line2d_36">
      <path d="M 495.488864 318.04 
L 495.488864 48.84 
" clip-path="url(#pff1ece1c88)" style="fill: none; stroke: #b0b0b0; stroke-opacity: 0.3; stroke-width: 0.8; stroke-linecap: square"/>
     </g>
     <g id="line2d_37">
      <g>
       <use xlink:href="#mddac636cde" x="495.488864" y="318.04" style="stroke: #000000; stroke-width: 0.8"/>
      </g>
     </g>
     <g id="text_18">
      <!-- 0 -->
      <g transform="translate(492.307614 332.638438) scale(0.1 -0.1)">
       <use xlink:href="#DejaVuSans-30"/>
      </g>
     </g>
    </g>
    <g id="xtick_7">
     <g id="line2d_38">
      <path d="M 559.509913 318.04 
L 559.509913 48.84 
" clip-path="url(#pff1ece1c88)" style="fill: none; stroke: #b0b0b0; stroke-opacity: 0.3; stroke-width: 0.8; stroke-linecap: square"/>
     </g>
     <g id="line2d_39">
      <g>
       <use xlink:href="#mddac636cde" x="559.509913" y="318.04" style="stroke: #000000; stroke-width: 0.8"/>
      </g>
     </g>
     <g id="text_19">
      <!-- 500 -->
      <g transform="translate(549.966163 332.638438) scale(0.1 -0.1)">
       <use xlink:href="#DejaVuSans-35"/>
       <use xlink:href="#DejaVuSans-30" transform="translate(63.623047 0)"/>
       <use xlink:href="#DejaVuSans-30" transform="translate(127.246094 0)"/>
      </g>
     </g>
    </g>
    <g id="xtick_8">
     <g id="line2d_40">
      <path d="M 623.530963 318.04 
L 623.530963 48.84 
" clip-path="url(#pff1ece1c88)" style="fill: none; stroke: #b0b0b0; stroke-opacity: 0.3; stroke-width: 0.8; stroke-linecap: square"/>
     </g>
     <g id="line2d_41">
      <g>
       <use xlink:href="#mddac636cde" x="623.530963" y="318.04" style="stroke: #000000; stroke-width: 0.8"/>
      </g>
     </g>
     <g id="text_20">
      <!-- 1000 -->
      <g transform="translate(610.805963 332.638438) scale(0.1 -0.1)">
       <use xlink:href="#DejaVuSans-31"/>
       <use xlink:href="#DejaVuSans-30" transform="translate(63.623047 0)"/>
       <use xlink:href="#DejaVuSans-30" transform="translate(127.246094 0)"/>
       <use xlink:href="#DejaVuSans-30" transform="translate(190.869141 0)"/>
      </g>
     </g>
    </g>
    <g id="xtick_9">
     <g id="line2d_42">
      <path d="M 687.552013 318.04 
L 687.552013 48.84 
" clip-path="url(#pff1ece1c88)" style="fill: none; stroke: #b0b0b0; stroke-opacity: 0.3; stroke-width: 0.8; stroke-linecap: square"/>
     </g>
     <g id="line2d_43">
      <g>
       <use xlink:href="#mddac636cde" x="687.552013" y="318.04" style="stroke: #000000; stroke-width: 0.8"/>
      </g>
     </g>
     <g id="text_21">
      <!-- 1500 -->
      <g transform="translate(674.827013 332.638438) scale(0.1 -0.1)">
       <use xlink:href="#DejaVuSans-31"/>
       <use xlink:href="#DejaVuSans-35" transform="translate(63.623047 0)"/>
       <use xlink:href="#DejaVuSans-30" transform="translate(127.246094 0)"/>
       <use xlink:href="#DejaVuSans-30" transform="translate(190.869141 0)"/>
      </g>
     </g>
    </g>
    <g id="xtick_10">
     <g id="line2d_44">
      <path d="M 751.573062 318.04 
L 751.573062 48.84 
" clip-path="url(#pff1ece1c88)" style="fill: none; stroke: #b0b0b0; stroke-opacity: 0.3; stroke-width: 0.8; stroke-linecap: square"/>
     </g>
     <g id="line2d_45">
      <g>
       <use xlink:href="#mddac636cde" x="751.573062" y="318.04" style="stroke: #000000; stroke-width: 0.8"/>
      </g>
     </g>
     <g id="text_22">
      <!-- 2000 -->
      <g transform="translate(738.848062 332.638438) scale(0.1 -0.1)">
       <use xlink:href="#DejaVuSans-32"/>
       <use xlink:href="#DejaVuSans-30" transform="translate(63.623047 0)"/>
       <use xlink:href="#DejaVuSans-30" transform="translate(127.246094 0)"/>
       <use xlink:href="#DejaVuSans-30" transform="translate(190.869141 0)"/>
      </g>
     </g>
    </g>
    <g id="xtick_11">
     <g id="line2d_46">
      <path d="M 815.594112 318.04 
L 815.594112 48.84 
" clip-path="url(#pff1ece1c88)" style="fill: none; stroke: #b0b0b0; stroke-opacity: 0.3; stroke-width: 0.8; stroke-linecap: square"/>
     </g>
     <g id="line2d_47">
      <g>
       <use xlink:href="#mddac636cde" x="815.594112" y="318.04" style="stroke: #000000; stroke-width: 0.8"/>
      </g>
     </g>
     <g id="text_23">
      <!-- 2500 -->
      <g transform="translate(802.869112 332.638438) scale(0.1 -0.1)">
       <use xlink:href="#DejaVuSans-32"/>
       <use xlink:href="#DejaVuSans-35" transform="translate(63.623047 0)"/>
       <use xlink:href="#DejaVuSans-30" transform="translate(127.246094 0)"/>
       <use xlink:href="#DejaVuSans-30" transform="translate(190.869141 0)"/>
      </g>
     </g>
    </g>
    <g id="text_24">
     <!-- Time since phase start (ms) -->
     <g transform="translate(596.84 346.316563) scale(0.1 -0.1)">
      <use xlink:href="#DejaVuSans-54"/>
      <use xlink:href="#DejaVuSans-69" transform="translate(57.958984 0)"/>
      <use xlink:href="#DejaVuSans-6d" transform="translate(85.742188 0)"/>
      <use xlink:href="#DejaVuSans-65" transform="translate(183.154297 0)"/>
      <use xlink:href="#DejaVuSans-20" transform="translate(244.677734 0)"/>
      <use xlink:href="#DejaVuSans-73" transform="translate(276.464844 0)"/>
      <use xlink:href="#DejaVuSans-69" transform="translate(328.564453 0)"/>
      <use xlink:href="#DejaVuSans-6e" transform="translate(356.347656 0)"/>
      <use xlink:href="#DejaVuSans-63" transform="translate(419.726562 0)"/>
      <use xlink:href="#DejaVuSans-65" transform="translate(474.707031 0)"/>
      <use xlink:href="#DejaVuSans-20" transform="translate(536.230469 0)"/>
      <use xlink:href="#DejaVuSans-70" transform="translate(568.017578 0)"/>
      <use xlink:href="#DejaVuSans-68" transform="translate(631.494141 0)"/>
      <use xlink:href="#DejaVuSans-61" transform="translate(694.873047 0)"/>
      <use xlink:href="#DejaVuSans-73" transform="translate(756.152344 0)"/>
      <use xlink:href="#DejaVuSans-65" transform="translate(808.251953 0)"/>
      <use xlink:href="#DejaVuSans-20" transform="translate(869.775391 0)"/>
      <use xlink:href="#DejaVuSans-73" transform="translate(901.5625 0)"/>
      <use xlink:href="#DejaVuSans-74" transform="translate(953.662109 0)"/>
      <use xlink:href="#DejaVuSans-61" transform="translate(992.871094 0)"/>
      <use xlink:href="#DejaVuSans-72" transform="translate(1054.150391 0)"/>
      <use xlink:href="#DejaVuSans-74" transform="translate(1095.263672 0)"/>
      <use xlink:href="#DejaVuSans-20" transform="translate(1134.472656 0)"/>
      <use xlink:href="#DejaVuSans-28" transform="translate(1166.259766 0)"/>
      <use xlink:href="#DejaVuSans-6d" transform="translate(1205.273438 0)"/>
      <use xlink:href="#DejaVuSans-73" transform="translate(1302.685547 0)"/>
      <use xlink:href="#DejaVuSans-29" transform="translate(1354.785156 0)"/>
     </g>
    </g>
   </g>
   <g id="matplotlib.axis_4">
    <g id="ytick_9">
     <g id="line2d_48">
      <path d="M 478.385 305.803636 
L 854.67 305.803636 
" clip-path="url(#pff1ece1c88)" style="fill: none; stroke: #b0b0b0; stroke-opacity: 0.3; stroke-width: 0.8; stroke-linecap: square"/>
     </g>
     <g id="line2d_49">
      <g>
       <use xlink:href="#m46bbae6f4f" x="478.385" y="305.803636" style="stroke: #000000; stroke-width: 0.8"/>
      </g>
     </g>
     <g id="text_25">
      <!-- 0.0 -->
      <g transform="translate(455.481875 309.602855) scale(0.1 -0.1)">
       <use xlink:href="#DejaVuSans-30"/>
       <use xlink:href="#DejaVuSans-2e" transform="translate(63.623047 0)"/>
       <use xlink:href="#DejaVuSans-30" transform="translate(95.410156 0)"/>
      </g>
     </g>
    </g>
    <g id="ytick_10">
     <g id="line2d_50">
      <path d="M 478.385 248.112153 
L 854.67 248.112153 
" clip-path="url(#pff1ece1c88)" style="fill: none; stroke: #b0b0b0; stroke-opacity: 0.3; stroke-width: 0.8; stroke-linecap: square"/>
     </g>
     <g id="line2d_51">
      <g>
       <use xlink:href="#m46bbae6f4f" x="478.385" y="248.112153" style="stroke: #000000; stroke-width: 0.8"/>
      </g>
     </g>
     <g id="text_26">
      <!-- 0.1 -->
      <g transform="translate(455.481875 251.911372) scale(0.1 -0.1)">
       <use xlink:href="#DejaVuSans-30"/>
       <use xlink:href="#DejaVuSans-2e" transform="translate(63.623047 0)"/>
       <use xlink:href="#DejaVuSans-31" transform="translate(95.410156 0)"/>
      </g>
     </g>
    </g>
    <g id="ytick_11">
     <g id="line2d_52">
      <path d="M 478.385 190.420669 
L 854.67 190.420669 
" clip-path="url(#pff1ece1c88)" style="fill: none; stroke: #b0b0b0; stroke-opacity: 0.3; stroke-width: 0.8; stroke-linecap: square"/>
     </g>
     <g id="line2d_53">
      <g>
       <use xlink:href="#m46bbae6f4f" x="478.385" y="190.420669" style="stroke: #000000; stroke-width: 0.8"/>
      </g>
     </g>
     <g id="text_27">
      <!-- 0.2 -->
      <g transform="translate(455.481875 194.219888) scale(0.1 -0.1)">
       <use xlink:href="#DejaVuSans-30"/>
       <use xlink:href="#DejaVuSans-2e" transform="translate(63.623047 0)"/>
       <use xlink:href="#DejaVuSans-32" transform="translate(95.410156 0)"/>
      </g>
     </g>
    </g>
    <g id="ytick_12">
     <g id="line2d_54">
      <path d="M 478.385 132.729186 
L 854.67 132.729186 
" clip-path="url(#pff1ece1c88)" style="fill: none; stroke: #b0b0b0; stroke-opacity: 0.3; stroke-width: 0.8; stroke-linecap: square"/>
     </g>
     <g id="line2d_55">
      <g>
       <use xlink:href="#m46bbae6f4f" x="478.385" y="132.729186" style="stroke: #000000; stroke-width: 0.8"/>
      </g>
     </g>
     <g id="text_28">
      <!-- 0.3 -->
      <g transform="translate(455.481875 136.528405) scale(0.1 -0.1)">
       <use xlink:href="#DejaVuSans-30"/>
       <use xlink:href="#DejaVuSans-2e" transform="translate(63.623047 0)"/>
       <use xlink:href="#DejaVuSans-33" transform="translate(95.410156 0)"/>
      </g>
     </g>
    </g>
    <g id="ytick_13">
     <g id="line2d_56">
      <path d="M 478.385 75.037703 
L 854.67 75.037703 
" clip-path="url(#pff1ece1c88)" style="fill: none; stroke: #b0b0b0; stroke-opacity: 0.3; stroke-width: 0.8; stroke-linecap: square"/>
     </g>
     <g id="line2d_57">
      <g>
       <use xlink:href="#m46bbae6f4f" x="478.385" y="75.037703" style="stroke: #000000; stroke-width: 0.8"/>
      </g>
     </g>
     <g id="text_29">
      <!-- 0.4 -->
      <g transform="translate(455.481875 78.836921) scale(0.1 -0.1)">
       <use xlink:href="#DejaVuSans-30"/>
       <use xlink:href="#DejaVuSans-2e" transform="translate(63.623047 0)"/>
       <use xlink:href="#DejaVuSans-34" transform="translate(95.410156 0)"/>
      </g>
     </g>
    </g>
    <g id="text_30">
     <!-- Current (A) -->
     <g transform="translate(449.402188 211.1275) rotate(-90) scale(0.1 -0.1)">
      <use xlink:href="#DejaVuSans-43"/>
      <use xlink:href="#DejaVuSans-75" transform="translate(69.824219 0)"/>
      <use xlink:href="#DejaVuSans-72" transform="translate(133.203125 0)"/>
      <use xlink:href="#DejaVuSans-72" transform="translate(172.566406 0)"/>
      <use xlink:href="#DejaVuSans-65" transform="translate(211.429688 0)"/>
      <use xlink:href="#DejaVuSans-6e" transform="translate(272.953125 0)"/>
      <use xlink:href="#DejaVuSans-74" transform="translate(336.332031 0)"/>
      <use xlink:href="#DejaVuSans-20" transform="translate(375.541016 0)"/>
      <use xlink:href="#DejaVuSans-28" transform="translate(407.328125 0)"/>
      <use xlink:href="#DejaVuSans-41" transform="translate(446.341797 0)"/>
      <use xlink:href="#DejaVuSans-29" transform="translate(514.75 0)"/>
     </g>
    </g>
   </g>
   <g id="line2d_58">
    <path d="M 495.488864 71.691597 
L 508.549158 61.076364 
L 521.699081 61.884044 
L 534.938634 91.883616 
L 548.114166 113.460231 
L 561.200069 113.344848 
L 574.349993 113.05639 
L 598.959684 111.383337 
L 598.998097 105.556497 
L 609.369507 100.537338 
L 626.975295 98.518136 
L 640.138023 104.575742 
L 653.313555 138.556026 
L 661.252166 167.171002 
L 679.510969 187.766861 
L 692.750522 204.612774 
L 705.990075 216.381837 
L 719.11439 224.747102 
L 732.481985 234.323888 
L 740.83033 241.477632 
L 758.589769 246.958323 
L 771.752497 248.746759 
L 784.851204 243.785292 
L 792.725793 247.535238 
L 811.138247 248.458302 
L 824.403409 236.458473 
L 837.566136 197.228265 
" clip-path="url(#pff1ece1c88)" style="fill: none; stroke: #e74c3c; stroke-opacity: 0.35; stroke-width: 0.6; stroke-linecap: square"/>
   </g>
   <g id="line2d_59">
    <path d="M 495.488864 145.825153 
L 512.544071 98.691211 
L 518.574854 94.36435 
L 534.759376 110.517965 
L 547.922103 114.440986 
L 561.072027 112.017944 
L 574.196342 109.306444 
L 587.333462 107.518008 
L 596.386038 102.844998 
L 613.69733 98.921977 
L 626.808841 97.191232 
L 649.011341 108.729529 
L 649.126579 137.979111 
L 662.161264 166.651778 
L 679.459752 188.516851 
L 692.494438 200.978211 
L 705.798012 215.862614 
L 718.986348 225.785549 
L 732.059446 234.035431 
L 744.044187 241.073792 
L 758.487336 244.823738 
L 780.94592 245.919877 
L 780.971528 247.535238 
L 791.522197 245.054504 
L 811.17666 247.881387 
L 817.450723 236.054633 
L 837.438094 197.747488 
" clip-path="url(#pff1ece1c88)" style="fill: none; stroke: #e74c3c; stroke-opacity: 0.35; stroke-width: 0.6; stroke-linecap: square"/>
   </g>
   <g id="line2d_60">
    <path d="M 496.461984 106.768019 
L 519.20226 87.729829 
L 522.518551 87.38368 
L 545.425282 110.921805 
L 548.754377 111.902561 
L 564.170646 108.902603 
L 584.900662 110.056433 
L 598.037781 107.691082 
L 600.009629 101.921934 
L 612.96749 100.133498 
L 626.603973 96.152786 
L 638.934428 105.498806 
L 651.892288 137.632962 
L 664.888561 164.40181 
L 677.756792 185.574585 
L 690.67624 202.189732 
L 704.568808 215.689539 
L 717.565081 227.862442 
L 730.471724 233.285442 
L 743.416781 241.073792 
L 761.048178 245.977568 
L 769.319697 245.573728 
L 782.328775 247.304472 
L 796.016475 245.631419 
L 808.871902 248.746759 
L 822.047434 239.227664 
L 835.056511 199.708998 
" clip-path="url(#pff1ece1c88)" style="fill: none; stroke: #e74c3c; stroke-opacity: 0.35; stroke-width: 0.6; stroke-linecap: square"/>
   </g>
   <g id="line2d_61">
    <path d="M 495.488864 108.094923 
L 508.293074 61.076364 
L 510.853916 98.691211 
L 518.536442 91.047089 
L 521.097284 74.633862 
L 533.901493 101.20079 
L 544.144861 110.921805 
L 546.705703 113.267926 
L 559.509913 112.681396 
L 562.070755 108.902603 
L 572.314123 111.181417 
L 582.557491 110.056433 
L 585.118333 107.518008 
L 595.361701 102.844998 
L 597.922543 106.638213 
L 608.165911 100.537338 
L 610.726753 100.133498 
L 613.287595 98.921977 
L 626.091805 97.287385 
L 638.896015 105.037274 
L 646.578541 123.35432 
L 651.700225 138.094494 
L 659.382751 167.171002 
L 661.943593 166.651778 
L 664.504435 164.40181 
L 677.308645 187.286099 
L 690.112855 201.583972 
L 692.673697 204.612774 
L 702.917065 215.689539 
L 705.477907 216.122225 
L 715.721275 227.862442 
L 718.282117 225.266325 
L 728.525485 233.285442 
L 731.086327 234.17966 
L 738.768852 241.477632 
L 741.329694 241.073792 
L 743.890536 241.073792 
L 756.694746 245.891031 
L 759.255588 245.977568 
L 766.938114 245.573728 
L 769.498956 248.746759 
L 779.742324 246.727557 
L 782.303166 245.544882 
L 789.985692 245.054504 
L 792.546534 247.535238 
L 795.107376 245.631419 
L 807.911586 248.746759 
L 810.472428 248.169844 
L 815.594112 236.054633 
L 820.715796 239.227664 
L 823.276638 236.458473 
L 833.520006 199.708998 
L 836.080848 197.487876 
" clip-path="url(#pff1ece1c88)" style="fill: none; stroke: #e74c3c; stroke-width: 2; stroke-linecap: square"/>
   </g>
   <g id="line2d_62">
    <path d="M 478.385 305.803636 
L 854.67 305.803636 
" clip-path="url(#pff1ece1c88)" style="fill: none; stroke-dasharray: 1.85,0.8; stroke-dashoffset: 0; stroke: #aaaaaa; stroke-width: 0.5"/>
   </g>
   <g id="patch_9">
    <path d="M 478.385 318.04 
L 478.385 48.84 
" style="fill: none; stroke: #000000; stroke-width: 0.8; stroke-linejoin: miter; stroke-linecap: square"/>
   </g>
   <g id="patch_10">
    <path d="M 854.67 318.04 
L 854.67 48.84 
" style="fill: none; stroke: #000000; stroke-width: 0.8; stroke-linejoin: miter; stroke-linecap: square"/>
   </g>
   <g id="patch_11">
    <path d="M 478.385 318.04 
L 854.67 318.04 
" style="fill: none; stroke: #000000; stroke-width: 0.8; stroke-linejoin: miter; stroke-linecap: square"/>
   </g>
   <g id="patch_12">
    <path d="M 478.385 48.84 
L 854.67 48.84 
" style="fill: none; stroke: #000000; stroke-width: 0.8; stroke-linejoin: miter; stroke-linecap: square"/>
   </g>
   <g id="text_31">
    <!-- Latch -->
    <g transform="translate(650.05375 42.84) scale(0.12 -0.12)">
     <defs>
      <path id="DejaVuSans-4c" d="M 628 4666 
L 1259 4666 
L 1259 531 
L 3531 531 
L 3531 0 
L 628 0 
L 628 4666 
z
" transform="scale(0.015625)"/>
     </defs>
     <use xlink:href="#DejaVuSans-4c"/>
     <use xlink:href="#DejaVuSans-61" transform="translate(55.712891 0)"/>
     <use xlink:href="#DejaVuSans-74" transform="translate(116.992188 0)"/>
     <use xlink:href="#DejaVuSans-63" transform="translate(156.201172 0)"/>
     <use xlink:href="#DejaVuSans-68" transform="translate(211.181641 0)"/>
    </g>
   </g>
   <g id="legend_2">
    <g id="patch_13">
     <path d="M 800.7825 66.9825 
L 849.07 66.9825 
Q 850.67 66.9825 850.67 65.3825 
L 850.67 54.44 
Q 850.67 52.84 849.07 52.84 
L 800.7825 52.84 
Q 799.1825 52.84 799.1825 54.44 
L 799.1825 65.3825 
Q 799.1825 66.9825 800.7825 66.9825 
z
" style="fill: #ffffff; opacity: 0.8; stroke: #cccccc; stroke-linejoin: miter"/>
    </g>
    <g id="line2d_63">
     <path d="M 802.3825 59.31875 
L 810.3825 59.31875 
L 818.3825 59.31875 
" style="fill: none; stroke: #e74c3c; stroke-width: 2; stroke-linecap: square"/>
    </g>
    <g id="text_32">
     <!-- mean -->
     <g transform="translate(824.7825 62.11875) scale(0.08 -0.08)">
      <use xlink:href="#DejaVuSans-6d"/>
      <use xlink:href="#DejaVuSans-65" transform="translate(97.412109 0)"/>
      <use xlink:href="#DejaVuSans-61" transform="translate(158.935547 0)"/>
      <use xlink:href="#DejaVuSans-6e" transform="translate(220.214844 0)"/>
     </g>
    </g>
   </g>
  </g>
  <g id="axes_3">
   <g id="patch_14">
    <path d="M 908.915 318.04 
L 1285.2 318.04 
L 1285.2 48.84 
L 908.915 48.84 
z
" style="fill: #ffffff"/>
   </g>
   <g id="matplotlib.axis_5">
    <g id="xtick_12">
     <g id="line2d_64">
      <path d="M 926.018864 318.04 
L 926.018864 48.84 
" clip-path="url(#p84b54074af)" style="fill: none; stroke: #b0b0b0; stroke-opacity: 0.3; stroke-width: 0.8; stroke-linecap: square"/>
     </g>
     <g id="line2d_65">
      <g>
       <use xlink:href="#mddac636cde" x="926.018864" y="318.04" style="stroke: #000000; stroke-width: 0.8"/>
      </g>
     </g>
     <g id="text_33">
      <!-- 0 -->
      <g transform="translate(922.837614 332.638438) scale(0.1 -0.1)">
       <use xlink:href="#DejaVuSans-30"/>
      </g>
     </g>
    </g>
    <g id="xtick_13">
     <g id="line2d_66">
      <path d="M 1001.681263 318.04 
L 1001.681263 48.84 
" clip-path="url(#p84b54074af)" style="fill: none; stroke: #b0b0b0; stroke-opacity: 0.3; stroke-width: 0.8; stroke-linecap: square"/>
     </g>
     <g id="line2d_67">
      <g>
       <use xlink:href="#mddac636cde" x="1001.681263" y="318.04" style="stroke: #000000; stroke-width: 0.8"/>
      </g>
     </g>
     <g id="text_34">
      <!-- 1000 -->
      <g transform="translate(988.956263 332.638438) scale(0.1 -0.1)">
       <use xlink:href="#DejaVuSans-31"/>
       <use xlink:href="#DejaVuSans-30" transform="translate(63.623047 0)"/>
       <use xlink:href="#DejaVuSans-30" transform="translate(127.246094 0)"/>
       <use xlink:href="#DejaVuSans-30" transform="translate(190.869141 0)"/>
      </g>
     </g>
    </g>
    <g id="xtick_14">
     <g id="line2d_68">
      <path d="M 1077.343662 318.04 
L 1077.343662 48.84 
" clip-path="url(#p84b54074af)" style="fill: none; stroke: #b0b0b0; stroke-opacity: 0.3; stroke-width: 0.8; stroke-linecap: square"/>
     </g>
     <g id="line2d_69">
      <g>
       <use xlink:href="#mddac636cde" x="1077.343662" y="318.04" style="stroke: #000000; stroke-width: 0.8"/>
      </g>
     </g>
     <g id="text_35">
      <!-- 2000 -->
      <g transform="translate(1064.618662 332.638438) scale(0.1 -0.1)">
       <use xlink:href="#DejaVuSans-32"/>
       <use xlink:href="#DejaVuSans-30" transform="translate(63.623047 0)"/>
       <use xlink:href="#DejaVuSans-30" transform="translate(127.246094 0)"/>
       <use xlink:href="#DejaVuSans-30" transform="translate(190.869141 0)"/>
      </g>
     </g>
    </g>
    <g id="xtick_15">
     <g id="line2d_70">
      <path d="M 1153.006061 318.04 
L 1153.006061 48.84 
" clip-path="url(#p84b54074af)" style="fill: none; stroke: #b0b0b0; stroke-opacity: 0.3; stroke-width: 0.8; stroke-linecap: square"/>
     </g>
     <g id="line2d_71">
      <g>
       <use xlink:href="#mddac636cde" x="1153.006061" y="318.04" style="stroke: #000000; stroke-width: 0.8"/>
      </g>
     </g>
     <g id="text_36">
      <!-- 3000 -->
      <g transform="translate(1140.281061 332.638438) scale(0.1 -0.1)">
       <use xlink:href="#DejaVuSans-33"/>
       <use xlink:href="#DejaVuSans-30" transform="translate(63.623047 0)"/>
       <use xlink:href="#DejaVuSans-30" transform="translate(127.246094 0)"/>
       <use xlink:href="#DejaVuSans-30" transform="translate(190.869141 0)"/>
      </g>
     </g>
    </g>
    <g id="xtick_16">
     <g id="line2d_72">
      <path d="M 1228.66846 318.04 
L 1228.66846 48.84 
" clip-path="url(#p84b54074af)" style="fill: none; stroke: #b0b0b0; stroke-opacity: 0.3; stroke-width: 0.8; stroke-linecap: square"/>
     </g>
     <g id="line2d_73">
      <g>
       <use xlink:href="#mddac636cde" x="1228.66846" y="318.04" style="stroke: #000000; stroke-width: 0.8"/>
      </g>
     </g>
     <g id="text_37">
      <!-- 4000 -->
      <g transform="translate(1215.94346 332.638438) scale(0.1 -0.1)">
       <use xlink:href="#DejaVuSans-34"/>
       <use xlink:href="#DejaVuSans-30" transform="translate(63.623047 0)"/>
       <use xlink:href="#DejaVuSans-30" transform="translate(127.246094 0)"/>
       <use xlink:href="#DejaVuSans-30" transform="translate(190.869141 0)"/>
      </g>
     </g>
    </g>
    <g id="text_38">
     <!-- Time since phase start (ms) -->
     <g transform="translate(1027.37 346.316563) scale(0.1 -0.1)">
      <use xlink:href="#DejaVuSans-54"/>
      <use xlink:href="#DejaVuSans-69" transform="translate(57.958984 0)"/>
      <use xlink:href="#DejaVuSans-6d" transform="translate(85.742188 0)"/>
      <use xlink:href="#DejaVuSans-65" transform="translate(183.154297 0)"/>
      <use xlink:href="#DejaVuSans-20" transform="translate(244.677734 0)"/>
      <use xlink:href="#DejaVuSans-73" transform="translate(276.464844 0)"/>
      <use xlink:href="#DejaVuSans-69" transform="translate(328.564453 0)"/>
      <use xlink:href="#DejaVuSans-6e" transform="translate(356.347656 0)"/>
      <use xlink:href="#DejaVuSans-63" transform="translate(419.726562 0)"/>
      <use xlink:href="#DejaVuSans-65" transform="translate(474.707031 0)"/>
      <use xlink:href="#DejaVuSans-20" transform="translate(536.230469 0)"/>
      <use xlink:href="#DejaVuSans-70" transform="translate(568.017578 0)"/>
      <use xlink:href="#DejaVuSans-68" transform="translate(631.494141 0)"/>
      <use xlink:href="#DejaVuSans-61" transform="translate(694.873047 0)"/>
      <use xlink:href="#DejaVuSans-73" transform="translate(756.152344 0)"/>
      <use xlink:href="#DejaVuSans-65" transform="translate(808.251953 0)"/>
      <use xlink:href="#DejaVuSans-20" transform="translate(869.775391 0)"/>
      <use xlink:href="#DejaVuSans-73" transform="translate(901.5625 0)"/>
      <use xlink:href="#DejaVuSans-74" transform="translate(953.662109 0)"/>
      <use xlink:href="#DejaVuSans-61" transform="translate(992.871094 0)"/>
      <use xlink:href="#DejaVuSans-72" transform="translate(1054.150391 0)"/>
      <use xlink:href="#DejaVuSans-74" transform="translate(1095.263672 0)"/>
      <use xlink:href="#DejaVuSans-20" transform="translate(1134.472656 0)"/>
      <use xlink:href="#DejaVuSans-28" transform="translate(1166.259766 0)"/>
      <use xlink:href="#DejaVuSans-6d" transform="translate(1205.273438 0)"/>
      <use xlink:href="#DejaVuSans-73" transform="translate(1302.685547 0)"/>
      <use xlink:href="#DejaVuSans-29" transform="translate(1354.785156 0)"/>
     </g>
    </g>
   </g>
   <g id="matplotlib.axis_6">
    <g id="ytick_14">
     <g id="line2d_74">
      <path d="M 908.915 305.803636 
L 1285.2 305.803636 
" clip-path="url(#p84b54074af)" style="fill: none; stroke: #b0b0b0; stroke-opacity: 0.3; stroke-width: 0.8; stroke-linecap: square"/>
     </g>
     <g id="line2d_75">
      <g>
       <use xlink:href="#m46bbae6f4f" x="908.915" y="305.803636" style="stroke: #000000; stroke-width: 0.8"/>
      </g>
     </g>
     <g id="text_39">
      <!-- 0.00 -->
      <g transform="translate(879.649375 309.602855) scale(0.1 -0.1)">
       <use xlink:href="#DejaVuSans-30"/>
       <use xlink:href="#DejaVuSans-2e" transform="translate(63.623047 0)"/>
       <use xlink:href="#DejaVuSans-30" transform="translate(95.410156 0)"/>
       <use xlink:href="#DejaVuSans-30" transform="translate(159.033203 0)"/>
      </g>
     </g>
    </g>
    <g id="ytick_15">
     <g id="line2d_76">
      <path d="M 908.915 274.363853 
L 1285.2 274.363853 
" clip-path="url(#p84b54074af)" style="fill: none; stroke: #b0b0b0; stroke-opacity: 0.3; stroke-width: 0.8; stroke-linecap: square"/>
     </g>
     <g id="line2d_77">
      <g>
       <use xlink:href="#m46bbae6f4f" x="908.915" y="274.363853" style="stroke: #000000; stroke-width: 0.8"/>
      </g>
     </g>
     <g id="text_40">
      <!-- 0.05 -->
      <g transform="translate(879.649375 278.163072) scale(0.1 -0.1)">
       <use xlink:href="#DejaVuSans-30"/>
       <use xlink:href="#DejaVuSans-2e" transform="translate(63.623047 0)"/>
       <use xlink:href="#DejaVuSans-30" transform="translate(95.410156 0)"/>
       <use xlink:href="#DejaVuSans-35" transform="translate(159.033203 0)"/>
      </g>
     </g>
    </g>
    <g id="ytick_16">
     <g id="line2d_78">
      <path d="M 908.915 242.92407 
L 1285.2 242.92407 
" clip-path="url(#p84b54074af)" style="fill: none; stroke: #b0b0b0; stroke-opacity: 0.3; stroke-width: 0.8; stroke-linecap: square"/>
     </g>
     <g id="line2d_79">
      <g>
       <use xlink:href="#m46bbae6f4f" x="908.915" y="242.92407" style="stroke: #000000; stroke-width: 0.8"/>
      </g>
     </g>
     <g id="text_41">
      <!-- 0.10 -->
      <g transform="translate(879.649375 246.723289) scale(0.1 -0.1)">
       <use xlink:href="#DejaVuSans-30"/>
       <use xlink:href="#DejaVuSans-2e" transform="translate(63.623047 0)"/>
       <use xlink:href="#DejaVuSans-31" transform="translate(95.410156 0)"/>
       <use xlink:href="#DejaVuSans-30" transform="translate(159.033203 0)"/>
      </g>
     </g>
    </g>
    <g id="ytick_17">
     <g id="line2d_80">
      <path d="M 908.915 211.484287 
L 1285.2 211.484287 
" clip-path="url(#p84b54074af)" style="fill: none; stroke: #b0b0b0; stroke-opacity: 0.3; stroke-width: 0.8; stroke-linecap: square"/>
     </g>
     <g id="line2d_81">
      <g>
       <use xlink:href="#m46bbae6f4f" x="908.915" y="211.484287" style="stroke: #000000; stroke-width: 0.8"/>
      </g>
     </g>
     <g id="text_42">
      <!-- 0.15 -->
      <g transform="translate(879.649375 215.283505) scale(0.1 -0.1)">
       <use xlink:href="#DejaVuSans-30"/>
       <use xlink:href="#DejaVuSans-2e" transform="translate(63.623047 0)"/>
       <use xlink:href="#DejaVuSans-31" transform="translate(95.410156 0)"/>
       <use xlink:href="#DejaVuSans-35" transform="translate(159.033203 0)"/>
      </g>
     </g>
    </g>
    <g id="ytick_18">
     <g id="line2d_82">
      <path d="M 908.915 180.044503 
L 1285.2 180.044503 
" clip-path="url(#p84b54074af)" style="fill: none; stroke: #b0b0b0; stroke-opacity: 0.3; stroke-width: 0.8; stroke-linecap: square"/>
     </g>
     <g id="line2d_83">
      <g>
       <use xlink:href="#m46bbae6f4f" x="908.915" y="180.044503" style="stroke: #000000; stroke-width: 0.8"/>
      </g>
     </g>
     <g id="text_43">
      <!-- 0.20 -->
      <g transform="translate(879.649375 183.843722) scale(0.1 -0.1)">
       <use xlink:href="#DejaVuSans-30"/>
       <use xlink:href="#DejaVuSans-2e" transform="translate(63.623047 0)"/>
       <use xlink:href="#DejaVuSans-32" transform="translate(95.410156 0)"/>
       <use xlink:href="#DejaVuSans-30" transform="translate(159.033203 0)"/>
      </g>
     </g>
    </g>
    <g id="ytick_19">
     <g id="line2d_84">
      <path d="M 908.915 148.60472 
L 1285.2 148.60472 
" clip-path="url(#p84b54074af)" style="fill: none; stroke: #b0b0b0; stroke-opacity: 0.3; stroke-width: 0.8; stroke-linecap: square"/>
     </g>
     <g id="line2d_85">
      <g>
       <use xlink:href="#m46bbae6f4f" x="908.915" y="148.60472" style="stroke: #000000; stroke-width: 0.8"/>
      </g>
     </g>
     <g id="text_44">
      <!-- 0.25 -->
      <g transform="translate(879.649375 152.403939) scale(0.1 -0.1)">
       <use xlink:href="#DejaVuSans-30"/>
       <use xlink:href="#DejaVuSans-2e" transform="translate(63.623047 0)"/>
       <use xlink:href="#DejaVuSans-32" transform="translate(95.410156 0)"/>
       <use xlink:href="#DejaVuSans-35" transform="translate(159.033203 0)"/>
      </g>
     </g>
    </g>
    <g id="ytick_20">
     <g id="line2d_86">
      <path d="M 908.915 117.164937 
L 1285.2 117.164937 
" clip-path="url(#p84b54074af)" style="fill: none; stroke: #b0b0b0; stroke-opacity: 0.3; stroke-width: 0.8; stroke-linecap: square"/>
     </g>
     <g id="line2d_87">
      <g>
       <use xlink:href="#m46bbae6f4f" x="908.915" y="117.164937" style="stroke: #000000; stroke-width: 0.8"/>
      </g>
     </g>
     <g id="text_45">
      <!-- 0.30 -->
      <g transform="translate(879.649375 120.964156) scale(0.1 -0.1)">
       <use xlink:href="#DejaVuSans-30"/>
       <use xlink:href="#DejaVuSans-2e" transform="translate(63.623047 0)"/>
       <use xlink:href="#DejaVuSans-33" transform="translate(95.410156 0)"/>
       <use xlink:href="#DejaVuSans-30" transform="translate(159.033203 0)"/>
      </g>
     </g>
    </g>
    <g id="ytick_21">
     <g id="line2d_88">
      <path d="M 908.915 85.725154 
L 1285.2 85.725154 
" clip-path="url(#p84b54074af)" style="fill: none; stroke: #b0b0b0; stroke-opacity: 0.3; stroke-width: 0.8; stroke-linecap: square"/>
     </g>
     <g id="line2d_89">
      <g>
       <use xlink:href="#m46bbae6f4f" x="908.915" y="85.725154" style="stroke: #000000; stroke-width: 0.8"/>
      </g>
     </g>
     <g id="text_46">
      <!-- 0.35 -->
      <g transform="translate(879.649375 89.524372) scale(0.1 -0.1)">
       <use xlink:href="#DejaVuSans-30"/>
       <use xlink:href="#DejaVuSans-2e" transform="translate(63.623047 0)"/>
       <use xlink:href="#DejaVuSans-33" transform="translate(95.410156 0)"/>
       <use xlink:href="#DejaVuSans-35" transform="translate(159.033203 0)"/>
      </g>
     </g>
    </g>
    <g id="ytick_22">
     <g id="line2d_90">
      <path d="M 908.915 54.28537 
L 1285.2 54.28537 
" clip-path="url(#p84b54074af)" style="fill: none; stroke: #b0b0b0; stroke-opacity: 0.3; stroke-width: 0.8; stroke-linecap: square"/>
     </g>
     <g id="line2d_91">
      <g>
       <use xlink:href="#m46bbae6f4f" x="908.915" y="54.28537" style="stroke: #000000; stroke-width: 0.8"/>
      </g>
     </g>
     <g id="text_47">
      <!-- 0.40 -->
      <g transform="translate(879.649375 58.084589) scale(0.1 -0.1)">
       <use xlink:href="#DejaVuSans-30"/>
       <use xlink:href="#DejaVuSans-2e" transform="translate(63.623047 0)"/>
       <use xlink:href="#DejaVuSans-34" transform="translate(95.410156 0)"/>
       <use xlink:href="#DejaVuSans-30" transform="translate(159.033203 0)"/>
      </g>
     </g>
    </g>
    <g id="text_48">
     <!-- Current (A) -->
     <g transform="translate(873.569687 211.1275) rotate(-90) scale(0.1 -0.1)">
      <use xlink:href="#DejaVuSans-43"/>
      <use xlink:href="#DejaVuSans-75" transform="translate(69.824219 0)"/>
      <use xlink:href="#DejaVuSans-72" transform="translate(133.203125 0)"/>
      <use xlink:href="#DejaVuSans-72" transform="translate(172.566406 0)"/>
      <use xlink:href="#DejaVuSans-65" transform="translate(211.429688 0)"/>
      <use xlink:href="#DejaVuSans-6e" transform="translate(272.953125 0)"/>
      <use xlink:href="#DejaVuSans-74" transform="translate(336.332031 0)"/>
      <use xlink:href="#DejaVuSans-20" transform="translate(375.541016 0)"/>
      <use xlink:href="#DejaVuSans-28" transform="translate(407.328125 0)"/>
      <use xlink:href="#DejaVuSans-41" transform="translate(446.341797 0)"/>
      <use xlink:href="#DejaVuSans-29" transform="translate(514.75 0)"/>
     </g>
    </g>
   </g>
   <g id="line2d_92">
    <path d="M 926.692259 108.173159 
L 934.53845 73.400759 
L 942.22575 76.796255 
L 949.882784 96.3518 
L 962.624332 97.357873 
L 965.053095 96.100282 
L 972.763094 92.01311 
L 980.382297 88.869132 
L 988.0242 83.147091 
L 996.944797 79.248558 
L 1003.262607 77.299292 
L 1010.94234 90.881278 
L 1018.667471 120.874831 
L 1026.400169 152.440374 
L 1034.034505 176.334609 
L 1041.623443 191.614344 
L 1054.077474 204.630414 
L 1061.855569 216.326013 
L 1064.708041 228.084492 
L 1076.216292 231.417109 
L 1080.014545 238.019464 
L 1087.603483 241.47784 
L 1095.177289 235.189883 
L 1102.84189 239.402814 
L 1110.983165 237.642186 
L 1118.246755 234.120931 
L 1126.796606 231.039832 
L 1133.712149 218.526798 
L 1141.134631 211.358528 
L 1155.896365 203.7501 
L 1156.365472 184.194555 
L 1163.984675 166.148119 
L 1172.398334 144.077391 
L 1179.26848 110.751221 
L 1187.023876 78.368244 
L 1196.466543 71.514372 
L 1202.390909 77.928087 
L 1211.175313 86.416829 
L 1217.576352 86.29107 
L 1225.483073 85.662274 
L 1234.933307 85.599395 
L 1240.948468 89.372169 
L 1248.870321 92.893424 
L 1256.55762 95.471486 
L 1264.199523 92.516147 
" clip-path="url(#p84b54074af)" style="fill: none; stroke: #2ecc71; stroke-opacity: 0.35; stroke-width: 0.6; stroke-linecap: square"/>
   </g>
   <g id="line2d_93">
    <path d="M 926.018864 78.808401 
L 933.47161 61.076364 
L 941.136211 65.855211 
L 954.172842 90.378242 
L 957.607915 94.90557 
L 965.287649 95.219968 
L 971.840013 94.276775 
L 979.557577 90.504001 
L 988.349548 82.769814 
L 994.894346 72.583324 
L 1002.634609 78.431124 
L 1010.533763 88.491855 
L 1018.743134 122.069543 
L 1026.01429 150.428228 
L 1033.716723 176.397489 
L 1042.970234 190.419632 
L 1048.334698 203.247063 
L 1058.3524 209.53502 
L 1065.351172 227.581456 
L 1073.36382 232.360303 
L 1080.317194 238.019464 
L 1088.148253 240.786165 
L 1095.926347 236.007318 
L 1103.674177 237.453548 
L 1119.427088 231.668627 
L 1124.829384 228.964806 
L 1132.456153 217.772243 
L 1142.56465 212.238841 
L 1150.403275 204.881932 
L 1158.060309 184.383193 
L 1163.046461 165.707962 
L 1170.703496 144.014512 
L 1178.436193 111.694415 
L 1191.820872 73.589397 
L 1193.704866 70.445419 
L 1201.42243 76.733376 
L 1209.018935 80.883427 
L 1216.706235 85.159238 
L 1224.36327 86.919865 
L 1235.848822 87.548661 
L 1239.71517 87.360022 
L 1247.228447 90.441121 
L 1254.877915 97.357873 
L 1262.542516 80.128872 
" clip-path="url(#p84b54074af)" style="fill: none; stroke: #2ecc71; stroke-opacity: 0.35; stroke-width: 0.6; stroke-linecap: square"/>
   </g>
   <g id="line2d_94">
    <path d="M 926.018864 102.010961 
L 933.683465 75.287146 
L 941.461559 77.110653 
L 949.224521 96.666198 
L 961.769347 97.86091 
L 963.539847 94.842691 
L 972.551239 91.698713 
L 980.329334 88.428975 
L 986.442856 83.964526 
L 995.915788 80.191752 
L 1001.734226 78.053847 
L 1011.411447 88.932012 
L 1019.197108 122.57258 
L 1027.0206 149.485034 
L 1041.093806 176.14597 
L 1041.108939 191.048428 
L 1050.339752 205.19633 
L 1058.011919 216.640411 
L 1065.865676 226.072346 
L 1073.848059 230.914073 
L 1078.274309 236.321715 
L 1085.916212 238.774018 
L 1096.856995 233.303496 
L 1104.892341 237.705066 
L 1112.435883 235.567161 
L 1127.825615 229.656481 
L 1135.815564 215.31994 
L 1143.495297 213.056276 
L 1151.303657 202.681147 
L 1154.723598 184.257434 
L 1166.844714 166.148119 
L 1174.683338 142.128125 
L 1182.461433 112.952006 
L 1190.269793 77.61369 
L 1199.757857 72.143167 
L 1200.529614 79.311438 
L 1213.868895 78.871281 
L 1221.351906 83.901646 
L 1223.659609 84.907719 
L 1231.415005 84.278924 
L 1244.618094 87.800179 
L 1252.441586 91.950231 
L 1254.348278 93.773738 
L 1268.096136 95.03133 
" clip-path="url(#p84b54074af)" style="fill: none; stroke: #2ecc71; stroke-opacity: 0.35; stroke-width: 0.6; stroke-linecap: square"/>
   </g>
   <g id="line2d_95">
    <path d="M 926.018864 96.330841 
L 932.071856 61.076364 
L 933.585104 74.343952 
L 939.638095 65.855211 
L 941.151343 76.953454 
L 948.717583 96.508999 
L 953.257327 90.378242 
L 956.283823 94.90557 
L 960.823567 97.86091 
L 962.336815 96.100282 
L 963.850063 95.660125 
L 971.416303 92.662866 
L 978.982543 89.267369 
L 985.035535 83.964526 
L 986.548783 83.147091 
L 988.062031 82.769814 
L 994.115023 72.583324 
L 995.628271 79.720155 
L 1001.681263 78.242485 
L 1003.194511 77.299292 
L 1009.247503 88.491855 
L 1010.760751 89.906645 
L 1018.326991 121.838985 
L 1025.89323 150.784545 
L 1033.45947 176.366049 
L 1041.02571 186.26958 
L 1042.538958 190.419632 
L 1047.078702 203.247063 
L 1050.105198 205.19633 
L 1053.131694 204.630414 
L 1057.671438 213.087716 
L 1060.697934 216.326013 
L 1063.72443 228.084492 
L 1065.237678 226.826901 
L 1072.803918 231.637188 
L 1075.830414 231.417109 
L 1077.343662 236.321715 
L 1078.85691 238.019464 
L 1084.909902 238.774018 
L 1086.42315 241.47784 
L 1087.936398 240.786165 
L 1093.98939 235.189883 
L 1095.502638 234.655407 
L 1101.55563 239.402814 
L 1103.068878 237.453548 
L 1104.582126 237.705066 
L 1110.635118 237.642186 
L 1112.148366 235.567161 
L 1118.201357 232.894779 
L 1124.254349 228.964806 
L 1125.767597 231.039832 
L 1127.280845 229.656481 
L 1131.820589 217.772243 
L 1133.333837 218.526798 
L 1134.847085 215.31994 
L 1140.900077 211.358528 
L 1142.413325 212.647559 
L 1149.979565 203.78154 
L 1154.519309 194.003767 
L 1156.032557 184.194555 
L 1157.545805 184.383193 
L 1162.085549 165.707962 
L 1163.598797 166.148119 
L 1166.625293 166.148119 
L 1169.651789 144.014512 
L 1171.165037 144.077391 
L 1174.191533 142.128125 
L 1177.218029 111.694415 
L 1178.731277 110.751221 
L 1181.757773 112.952006 
L 1186.297517 78.368244 
L 1189.324013 77.61369 
L 1190.837261 73.589397 
L 1192.350509 70.445419 
L 1195.377005 71.514372 
L 1198.403501 72.143167 
L 1199.916749 78.022407 
L 1201.429996 77.928087 
L 1208.996236 80.883427 
L 1210.509484 86.416829 
L 1213.53598 78.871281 
L 1216.562476 85.725154 
L 1221.10222 83.901646 
L 1222.615468 84.907719 
L 1224.128716 86.29107 
L 1230.181708 84.278924 
L 1234.721452 86.574028 
L 1239.261196 87.360022 
L 1240.774444 89.372169 
L 1243.80094 87.800179 
L 1246.827436 90.441121 
L 1248.340684 92.893424 
L 1251.36718 91.950231 
L 1252.880428 93.773738 
L 1254.393676 97.357873 
L 1255.906924 95.471486 
L 1261.959916 80.128872 
L 1263.473164 92.516147 
L 1268.012908 95.03133 
" clip-path="url(#p84b54074af)" style="fill: none; stroke: #2ecc71; stroke-width: 2; stroke-linecap: square"/>
   </g>
   <g id="line2d_96">
    <path d="M 908.915 305.803636 
L 1285.2 305.803636 
" clip-path="url(#p84b54074af)" style="fill: none; stroke-dasharray: 1.85,0.8; stroke-dashoffset: 0; stroke: #aaaaaa; stroke-width: 0.5"/>
   </g>
   <g id="patch_15">
    <path d="M 908.915 318.04 
L 908.915 48.84 
" style="fill: none; stroke: #000000; stroke-width: 0.8; stroke-linejoin: miter; stroke-linecap: square"/>
   </g>
   <g id="patch_16">
    <path d="M 1285.2 318.04 
L 1285.2 48.84 
" style="fill: none; stroke: #000000; stroke-width: 0.8; stroke-linejoin: miter; stroke-linecap: square"/>
   </g>
   <g id="patch_17">
    <path d="M 908.915 318.04 
L 1285.2 318.04 
" style="fill: none; stroke: #000000; stroke-width: 0.8; stroke-linejoin: miter; stroke-linecap: square"/>
   </g>
   <g id="patch_18">
    <path d="M 908.915 48.84 
L 1285.2 48.84 
" style="fill: none; stroke: #000000; stroke-width: 0.8; stroke-linejoin: miter; stroke-linecap: square"/>
   </g>
   <g id="text_49">
    <!-- Home -->
    <g transform="translate(1079.337812 42.84) scale(0.12 -0.12)">
     <defs>
      <path id="DejaVuSans-48" d="M 628 4666 
L 1259 4666 
L 1259 2753 
L 3553 2753 
L 3553 4666 
L 4184 4666 
L 4184 0 
L 3553 0 
L 3553 2222 
L 1259 2222 
L 1259 0 
L 628 0 
L 628 4666 
z
" transform="scale(0.015625)"/>
      <path id="DejaVuSans-6f" d="M 1959 3097 
Q 1497 3097 1228 2736 
Q 959 2375 959 1747 
Q 959 1119 1226 758 
Q 1494 397 1959 397 
Q 2419 397 2687 759 
Q 2956 1122 2956 1747 
Q 2956 2369 2687 2733 
Q 2419 3097 1959 3097 
z
M 1959 3584 
Q 2709 3584 3137 3096 
Q 3566 2609 3566 1747 
Q 3566 888 3137 398 
Q 2709 -91 1959 -91 
Q 1206 -91 779 398 
Q 353 888 353 1747 
Q 353 2609 779 3096 
Q 1206 3584 1959 3584 
z
" transform="scale(0.015625)"/>
     </defs>
     <use xlink:href="#DejaVuSans-48"/>
     <use xlink:href="#DejaVuSans-6f" transform="translate(75.195312 0)"/>
     <use xlink:href="#DejaVuSans-6d" transform="translate(136.376953 0)"/>
     <use xlink:href="#DejaVuSans-65" transform="translate(233.789062 0)"/>
    </g>
   </g>
   <g id="legend_3">
    <g id="patch_19">
     <path d="M 1231.3125 66.9825 
L 1279.6 66.9825 
Q 1281.2 66.9825 1281.2 65.3825 
L 1281.2 54.44 
Q 1281.2 52.84 1279.6 52.84 
L 1231.3125 52.84 
Q 1229.7125 52.84 1229.7125 54.44 
L 1229.7125 65.3825 
Q 1229.7125 66.9825 1231.3125 66.9825 
z
" style="fill: #ffffff; opacity: 0.8; stroke: #cccccc; stroke-linejoin: miter"/>
    </g>
    <g id="line2d_97">
     <path d="M 1232.9125 59.31875 
L 1240.9125 59.31875 
L 1248.9125 59.31875 
" style="fill: none; stroke: #2ecc71; stroke-width: 2; stroke-linecap: square"/>
    </g>
    <g id="text_50">
     <!-- mean -->
     <g transform="translate(1255.3125 62.11875) scale(0.08 -0.08)">
      <use xlink:href="#DejaVuSans-6d"/>
      <use xlink:href="#DejaVuSans-65" transform="translate(97.412109 0)"/>
      <use xlink:href="#DejaVuSans-61" transform="translate(158.935547 0)"/>
      <use xlink:href="#DejaVuSans-6e" transform="translate(220.214844 0)"/>
     </g>
    </g>
   </g>
  </g>
  <g id="text_51">
   <!-- Gripper current per phase — 1 run(s) -->
   <g transform="translate(536.588438 16.318125) scale(0.12 -0.12)">
    <defs>
     <path id="DejaVuSans-47" d="M 3809 666 
L 3809 1919 
L 2778 1919 
L 2778 2438 
L 4434 2438 
L 4434 434 
Q 4069 175 3628 42 
Q 3188 -91 2688 -91 
Q 1594 -91 976 548 
Q 359 1188 359 2328 
Q 359 3472 976 4111 
Q 1594 4750 2688 4750 
Q 3144 4750 3555 4637 
Q 3966 4525 4313 4306 
L 4313 3634 
Q 3963 3931 3569 4081 
Q 3175 4231 2741 4231 
Q 1884 4231 1454 3753 
Q 1025 3275 1025 2328 
Q 1025 1384 1454 906 
Q 1884 428 2741 428 
Q 3075 428 3337 486 
Q 3600 544 3809 666 
z
" transform="scale(0.015625)"/>
     <path id="DejaVuSans-2014" d="M 313 1978 
L 6088 1978 
L 6088 1528 
L 313 1528 
L 313 1978 
z
" transform="scale(0.015625)"/>
    </defs>
    <use xlink:href="#DejaVuSans-47"/>
    <use xlink:href="#DejaVuSans-72" transform="translate(77.490234 0)"/>
    <use xlink:href="#DejaVuSans-69" transform="translate(118.603516 0)"/>
    <use xlink:href="#DejaVuSans-70" transform="translate(146.386719 0)"/>
    <use xlink:href="#DejaVuSans-70" transform="translate(209.863281 0)"/>
    <use xlink:href="#DejaVuSans-65" transform="translate(273.339844 0)"/>
    <use xlink:href="#DejaVuSans-72" transform="translate(334.863281 0)"/>
    <use xlink:href="#DejaVuSans-20" transform="translate(375.976562 0)"/>
    <use xlink:href="#DejaVuSans-63" transform="translate(407.763672 0)"/>
    <use xlink:href="#DejaVuSans-75" transform="translate(462.744141 0)"/>
    <use xlink:href="#DejaVuSans-72" transform="translate(526.123047 0)"/>
    <use xlink:href="#DejaVuSans-72" transform="translate(565.486328 0)"/>
    <use xlink:href="#DejaVuSans-65" transform="translate(604.349609 0)"/>
    <use xlink:href="#DejaVuSans-6e" transform="translate(665.873047 0)"/>
    <use xlink:href="#DejaVuSans-74" transform="translate(729.251953 0)"/>
    <use xlink:href="#DejaVuSans-20" transform="translate(768.460938 0)"/>
    <use xlink:href="#DejaVuSans-70" transform="translate(800.248047 0)"/>
    <use xlink:href="#DejaVuSans-65" transform="translate(863.724609 0)"/>
    <use xlink:href="#DejaVuSans-72" transform="translate(925.248047 0)"/>
    <use xlink:href="#DejaVuSans-20" transform="translate(966.361328 0)"/>
    <use xlink:href="#DejaVuSans-70" transform="translate(998.148438 0)"/>
    <use xlink:href="#DejaVuSans-68" transform="translate(1061.625 0)"/>
    <use xlink:href="#DejaVuSans-61" transform="translate(1125.003906 0)"/>
    <use xlink:href="#DejaVuSans-73" transform="translate(1186.283203 0)"/>
    <use xlink:href="#DejaVuSans-65" transform="translate(1238.382812 0)"/>
    <use xlink:href="#DejaVuSans-20" transform="translate(1299.90625 0)"/>
    <use xlink:href="#DejaVuSans-2014" transform="translate(1331.693359 0)"/>
    <use xlink:href="#DejaVuSans-20" transform="translate(1431.693359 0)"/>
    <use xlink:href="#DejaVuSans-31" transform="translate(1463.480469 0)"/>
    <use xlink:href="#DejaVuSans-20" transform="translate(1527.103516 0)"/>
    <use xlink:href="#DejaVuSans-72" transform="translate(1558.890625 0)"/>
    <use xlink:href="#DejaVuSans-75" transform="translate(1600.003906 0)"/>
    <use xlink:href="#DejaVuSans-6e" transform="translate(1663.382812 0)"/>
    <use xlink:href="#DejaVuSans-28" transform="translate(1726.761719 0)"/>
    <use xlink:href="#DejaVuSans-73" transform="translate(1765.775391 0)"/>
    <use xlink:href="#DejaVuSans-29" transform="translate(1817.875 0)"/>
   </g>
  </g>
 </g>
 <defs>
  <clipPath id="pe138698817">
   <rect x="47.855" y="48.84" width="376.285" height="269.2"/>
  </clipPath>
  <clipPath id="pff1ece1c88">
   <rect x="478.385" y="48.84" width="376.285" height="269.2"/>
  </clipPath>
  <clipPath id="p84b54074af">
   <rect x="908.915" y="48.84" width="376.285" height="269.2"/>
  </clipPath>
 </defs>
</svg>
